<svg id="Layer_1" data-name="Layer 1" xmlns="http://www.w3.org/2000/svg" viewBox="0 0 998.72 43.17"><defs><style>.cls-1{fill:#7f7f7f;}</style></defs><path class="cls-1" d="M34,38.2a3,3,0,0,1,.69.55.91.91,0,0,1,.26.54,1.2,1.2,0,0,1,0,.5,1.13,1.13,0,0,1-.36.49l-.51.44a5,5,0,0,1-.67.42l-.7.37-.71.34c-.29.13-.49.23-.61.3a11.12,11.12,0,0,0-1.92,1.26,20.22,20.22,0,0,0-1.67,1.41,2.38,2.38,0,0,1-1.52.43,4.13,4.13,0,0,1-2-.33,1.82,1.82,0,0,1-.66-.53,3.15,3.15,0,0,1-.36-.56,1.06,1.06,0,0,0-.49-.43,2.52,2.52,0,0,0-1.07-.22l-2.89,0c-.27,0-.69,0-1.27,0l-1.31.06a4.89,4.89,0,0,0-1.77.33,4,4,0,0,0-1.18.67,4.78,4.78,0,0,1-1,.63,2.38,2.38,0,0,1-1.19.26,9.92,9.92,0,0,1-2.49-.69,24.81,24.81,0,0,0-3.25-1l-1.15-.21-1.11-.21c-.27,0-.56-.13-.87-.21a2.74,2.74,0,0,1-.74-.31,1.15,1.15,0,0,1-.39-.44,2,2,0,0,1,.14-1.49,5.83,5.83,0,0,0,.4-1.21,3.48,3.48,0,0,0-.08-.9c-.08-.36-.15-.68-.23-.94a2.82,2.82,0,0,1-.11-.81.77.77,0,0,1,.25-.61,2.34,2.34,0,0,1,1.27-.3,3.25,3.25,0,0,0,1.35-.27A2.77,2.77,0,0,0,5,34.8a2,2,0,0,0,.27-1.15,2.58,2.58,0,0,1,0,1.43,1.65,1.65,0,0,1-.73.93,3,3,0,0,1-1.85.36q-.77-.06-1,.21c-.18.23-.14.66.12,1.27,0,.07.08.19.17.39s.16.34.19.42.06.21.1.37a2.07,2.07,0,0,1,0,.5A2.85,2.85,0,0,1,2,40.62a1.92,1.92,0,0,0-.32,1.08c0,.23.32.42.84.56.32.09,1,.24,1.93.42s1.69.35,2.17.46.91.26,1.66.49,1.36.41,1.84.52a3.39,3.39,0,0,0,1.23.09,2.41,2.41,0,0,0,1.44-.63,1.61,1.61,0,0,0,.51-1.06,3.72,3.72,0,0,0-.16-1.31,7,7,0,0,0-.42-1.16,9.13,9.13,0,0,0-.45-.82A54.31,54.31,0,0,0,8.62,34C7.55,32.79,6.67,32.45,6,33c-.16.13-.26,0-.32-.26a4.08,4.08,0,0,1-.07-.93,3.47,3.47,0,0,1,.22-1.16,8.09,8.09,0,0,1,.54-1.05,6.67,6.67,0,0,0,.49-.94c.12-.29.32-.82.6-1.6s.49-1.37.65-1.76a13.58,13.58,0,0,1,.66-1.35,5.92,5.92,0,0,1,.88-1.21,18.21,18.21,0,0,0,2.78-4.35c-.19-1.66-.3-4-.36-6.92a8.5,8.5,0,0,1,.54-3.38,5,5,0,0,1,4.68-2.79,8.76,8.76,0,0,1,2.37.3,6,6,0,0,1,2,.91,6.43,6.43,0,0,1,2,2.72,7.23,7.23,0,0,1,.66,3.3A13.82,13.82,0,0,0,25,17.26a12.42,12.42,0,0,0,3,4.89,12.29,12.29,0,0,1,2.23,3.63A19.37,19.37,0,0,1,31.51,30a8.62,8.62,0,0,1,.11,1.89,4,4,0,0,1-.27,1.24q-.2.44-.45.48a1.14,1.14,0,0,0-.52.42c-.2.25-.4.52-.6.8a2.66,2.66,0,0,1-.9.76,2.47,2.47,0,0,1-1.36.31,3.32,3.32,0,0,1-.7-.11,1.16,1.16,0,0,1-.5-.3,3.31,3.31,0,0,1-.3-.36,2.48,2.48,0,0,1-.25-.46l-.22-.43c-.32-.55-.63-.77-.92-.67s-.49.47-.62,1.1a4.22,4.22,0,0,0,.15,2.16A9,9,0,0,1,24.42,39a19.35,19.35,0,0,1-.24,2.27,2.85,2.85,0,0,0,.41,2.24,1.86,1.86,0,0,0,1.63.74,3.19,3.19,0,0,0,1.89-.79,15.21,15.21,0,0,1,2-1.49,15.62,15.62,0,0,1,2.32-1,5.91,5.91,0,0,0,1.71-.82c.36-.27.49-.52.41-.75a1.24,1.24,0,0,0-.54-.62,5.41,5.41,0,0,0-1.15-.54,1.82,1.82,0,0,1-1.12-1.06,3.48,3.48,0,0,1-.33-1.63,1.5,1.5,0,0,1,.35-1.06A6.43,6.43,0,0,0,32,35.75a4.65,4.65,0,0,0,.31.9,2.12,2.12,0,0,0,.46.63,3,3,0,0,0,.47.42,3.24,3.24,0,0,0,.47.3Zm-5.18-5.9q0-.39-1.23-.93a7.32,7.32,0,0,0,.32-1.66,5.92,5.92,0,0,0,0-1.21c0-.3-.13-.8-.29-1.49l0-.13s0-.07,0-.11a.5.5,0,0,0,0-.13,7,7,0,0,0-1-2.29,5.3,5.3,0,0,0-1.6-1.68,6.9,6.9,0,0,1,1.27,1.86q2,3.63,1.21,6.21a1.13,1.13,0,0,1-1.12.94.82.82,0,0,1-.67-.14,1,1,0,0,1-.28-.64,7.47,7.47,0,0,1-.06-1c0-.35,0-.8-.06-1.36A9.15,9.15,0,0,0,25,27a12.44,12.44,0,0,0-.55-1.84,6.57,6.57,0,0,0-.48-1,2.43,2.43,0,0,0-.41-.49l-.22-.23a12.92,12.92,0,0,0-.69-2.31A5.41,5.41,0,0,0,22,19.86a6,6,0,0,1-.53-.73,2.32,2.32,0,0,1-.31-1.85c.08-.36.15-.65.22-.87a.62.62,0,0,0-.11-.61,1.4,1.4,0,0,0-.89-.43,3.81,3.81,0,0,1-1-.4,4,4,0,0,0-.8-.36c-.12,0-.2-.21-.25-.58a2.26,2.26,0,0,1,.18-1.13.87.87,0,0,1,.81-.6,1,1,0,0,1,1.13.67,1.69,1.69,0,0,1,.1,1.29c-.15.28-.17.48,0,.59s.35.12.67,0,.29-.33.28-.8a7.91,7.91,0,0,1,0-.82,3.06,3.06,0,0,0-.68-1.71,2.53,2.53,0,0,0-1.23-.59,2.75,2.75,0,0,0-1.07.28,1.46,1.46,0,0,0-.62.54,2.47,2.47,0,0,0-.3.68,2,2,0,0,0-.07.71,5,5,0,0,1,.05.63,1.63,1.63,0,0,0,.06.41c0,.08,0,.1-.05.07a1,1,0,0,0-.65-.23,4.33,4.33,0,0,0-.74,0q-.29,0-.36-.12a4.27,4.27,0,0,0-.37-2,1.17,1.17,0,0,0-1-.76,1,1,0,0,0-.94.63,3.36,3.36,0,0,0-.37,1.32,3.24,3.24,0,0,0,.22,1.28c.18.5.35.73.5.68a.51.51,0,0,0,.35-.32c.06-.11,0-.17-.15-.17s-.22-.11-.34-.33a1.56,1.56,0,0,1-.21-.75,1.37,1.37,0,0,1,.21-.83.82.82,0,0,1,.75-.3.69.69,0,0,1,.61.47,1.85,1.85,0,0,1,.21.87c0,.27,0,.43,0,.5a2.47,2.47,0,0,0-.7.64,1.83,1.83,0,0,1-.61.53l-.45.27a1.36,1.36,0,0,0-.35.6.32.32,0,0,0,.16.4,1.89,1.89,0,0,1,.56.44,3.15,3.15,0,0,1,.35.43.94.94,0,0,0,.42.29,2.41,2.41,0,0,0,.79.15,7.41,7.41,0,0,0,2.29-.33,3.69,3.69,0,0,1,.51-.15c.31-.09.57-.16.77-.24a4.07,4.07,0,0,0,.65-.3,1.21,1.21,0,0,0,.47-.39c.13-.21.28-.27.45-.17a.29.29,0,0,1,.16.18.29.29,0,0,1-.08.27.64.64,0,0,1-.37.21,9.78,9.78,0,0,0-1.27.48L18,18a7.35,7.35,0,0,1-1.56.51,6,6,0,0,1-1.72,0c-.15,0-.23,0-.23,0s.11.19.37.42a2,2,0,0,0,1.5.49,6.12,6.12,0,0,0,2.62-1c.73-.42,1.18-.6,1.35-.55a.3.3,0,0,1,.17.23.15.15,0,0,1,0,.09.26.26,0,0,1-.08.11l-.14.11-.19.11-.19.11-.23.11-.2.11a8.75,8.75,0,0,0-1.52,1,8.47,8.47,0,0,1-1.49,1,1.17,1.17,0,0,1-1.09,0,5.22,5.22,0,0,1-1.39-1.56c-.27-.41-.44-.61-.51-.61s-.09.09-.08.28A3,3,0,0,1,13,20.12a11.86,11.86,0,0,1-.66,1.25,3.59,3.59,0,0,0-.47,1.28,2,2,0,0,0,.25,1.41c-.34.09-.8.76-1.4,2a10.84,10.84,0,0,0-1.06,3.15,11.91,11.91,0,0,0,0,1.54,3.12,3.12,0,0,1-.11,1.31c-.12.35-.34.38-.65.08a3,3,0,0,1-.78-1.94,4.24,4.24,0,0,1,.08-1.42c0-.26,0-.39,0-.39a.43.43,0,0,0-.1.09,4.1,4.1,0,0,0,.22,3.72,1.76,1.76,0,0,0,.54.61c.29.23.47.38.55.46a21.76,21.76,0,0,0,2.31,2c1.26,1,1.95,1.58,2.08,1.72a1.19,1.19,0,0,1,.39.85,1.3,1.3,0,0,1-.31,1,1.44,1.44,0,0,1-1,.51,10.24,10.24,0,0,0,.66,1,4.11,4.11,0,0,1,.63,1.2,6.38,6.38,0,0,1,.15,1.57c.68-.36.73-1,.16-2.05a3.31,3.31,0,0,0-.25-.35c-.09-.12-.17-.2-.21-.26a.17.17,0,0,1,0-.15.62.62,0,0,1,.29-.21.44.44,0,0,1,.45.05c.69.77,1.93,1,3.71.81,2-.23,3.28-.88,3.95-2,.34-.57.59-.79.76-.66s.24.48.22,1.17a10.59,10.59,0,0,1-.51,2,1.47,1.47,0,0,0-.12.83c.05.22.23.33.53.34,0-.3.14-.88.31-1.74a18.92,18.92,0,0,0,.31-2,7.87,7.87,0,0,0-.14-1.64,12,12,0,0,1-.17-2.16A2.42,2.42,0,0,1,24,33.61a1.42,1.42,0,0,1,1.13-.41A1.23,1.23,0,0,1,25.89,32a2.85,2.85,0,0,1,1.61-.24A2.69,2.69,0,0,1,28.85,32.3Zm-19.08-8a.11.11,0,0,0-.13.06,2,2,0,0,0-.1.28,1,1,0,0,1-.12.3,1.1,1.1,0,0,1-.24.29c-.11.17-.12.26,0,.28s.16,0,.29-.17a1.32,1.32,0,0,0,.28-.4C9.86,24.53,9.87,24.31,9.77,24.28Zm5.06-10.45a1.24,1.24,0,0,0-.06-.67c-.08-.19-.16-.3-.25-.33s-.21,0-.2.16,0,.13.12.13.19.11.15.34,0,.44.18.44S14.83,13.88,14.83,13.83Zm.84.6a.37.37,0,0,0-.35.24c-.07.14-.13.21-.2.21s-.14,0-.12-.16S15.28,14.42,15.67,14.43Zm1.93.31c-.05,0-.13,0-.24-.13a.39.39,0,0,0-.4-.1c.35-.16.58-.14.68,0S17.69,14.71,17.6,14.74Zm2.62-1.27A.72.72,0,0,0,20,12.9q-.23-.22-.36-.21c-.09,0-.15,0-.17.05a.06.06,0,0,0,0,.09.17.17,0,0,0,.11.06c.21,0,.34.29.39.7H20a.34.34,0,0,0,.12-.06S20.22,13.49,20.22,13.47Zm1.21-5.19a.17.17,0,0,0-.06-.12L21.17,8,21,7.87a.89.89,0,0,0-.55-.33.3.3,0,0,0-.26.16.42.42,0,0,0,0,.31.42.42,0,0,1,0,.27,1.67,1.67,0,0,1-.15.23.68.68,0,0,0-.11.21s0,.09.07.18a.14.14,0,0,0,.17,0,1.13,1.13,0,0,0,.26-.2.84.84,0,0,1,.33-.21h.2a1.49,1.49,0,0,0,.33,0A.32.32,0,0,0,21.43,8.28Zm2.75,10A.35.35,0,0,0,24,18a.91.91,0,0,0-.31-.12,1,1,0,0,1-.31-.13,1.2,1.2,0,0,1-.21-.17l-.16-.18-.12-.15s-.06-.07-.08-.07-.05,0-.09,0q-.32.35.15,1a1.86,1.86,0,0,0,.88.72.33.33,0,0,0,.32-.19A.67.67,0,0,0,24.18,18.24Z" transform="translate(-1.03 -2.12)"/><path class="cls-1" d="M77.76,8.71l9.53,16.56L77.76,41.83H58.7L49.16,25.27,58.7,8.71ZM77.84,29l.07.08a.66.66,0,0,1,.24.08.87.87,0,0,0,.39.08,1.66,1.66,0,0,0,.51.07,2.47,2.47,0,0,0,.58-.07,2,2,0,0,0,.71-.16,5.25,5.25,0,0,1,.78-.31l.86-.55-2.19-2.19-7.27-7.26L69.32,22,65,17.54,54.16,28.24l.86.55c.32.1.6.21.86.31a1.47,1.47,0,0,0,.63.16,2.47,2.47,0,0,0,.58.07,1.61,1.61,0,0,0,.51-.07.87.87,0,0,0,.39-.08,1,1,0,0,0,.24-.16h.07l4.93-4.92L65,22.46l4.84,4.76L71.51,29l.08.08a.62.62,0,0,1,.23.08.87.87,0,0,0,.39.08,1.7,1.7,0,0,0,.51.07,2.41,2.41,0,0,0,.58-.07A2,2,0,0,0,74,29.1a6.32,6.32,0,0,1,.78-.31c.26-.16.55-.34.86-.55l-3.91-3.83.78-.7,3.36,3.36ZM63,29.33V25.27l-2.89,3c.31.21.6.39.86.55l.78.31c.26,0,.5.1.71.16A2.28,2.28,0,0,0,63,29.33Zm8.83-4.84-2.58-2.58.24-.15,2.57,2.5Z" transform="translate(-1.03 -2.12)"/><path class="cls-1" d="M103,11.52a19.43,19.43,0,0,1,27.5,0,18.75,18.75,0,0,1,5.7,13.75A18.73,18.73,0,0,1,130.53,39,19.43,19.43,0,0,1,103,39a18.73,18.73,0,0,1-5.7-13.75A18.75,18.75,0,0,1,103,11.52Zm1.17,7a14.28,14.28,0,0,0-1.72,6.8,13.82,13.82,0,0,0,4.18,10.12,13.78,13.78,0,0,0,10.12,4.18H118l-.47-7.42h-.78a6.86,6.86,0,0,1-5-2,6.66,6.66,0,0,1-2.07-4.93,6.42,6.42,0,0,1,.94-3.36ZM115.69,11l-.08.08V11Zm1.09,0h-.7l.47,7.35h.15a7.4,7.4,0,0,1,3.6.9,6.67,6.67,0,0,1,2.58,2.5,7,7,0,0,1,.23,6.52l6.48,3.44a14.46,14.46,0,0,0,1.49-6.41,14,14,0,0,0-1.92-7.19A14.19,14.19,0,0,0,124,12.89,14,14,0,0,0,116.78,11Z" transform="translate(-1.03 -2.12)"/><path class="cls-1" d="M164.48,6.29c.2.47.61,1.39,1.21,2.77s1,2.27,1.13,2.66.51,1.21,1.06,2.46,1,2.22,1.32,2.93.86,1.76,1.57,3.16,1.41,2.8,2.14,4.18,1.61,3.05,2.62,5,2.15,4.08,3.4,6.37a21.87,21.87,0,0,0-5.23-2c.78.41,1.53.86,2.26,1.33s1.28.83,1.64,1.09.86.64,1.49,1.13,1,.82,1.17,1q2.42,4.45,3.2,5.94-9.14-5.32-14.84-6.41a8.7,8.7,0,0,0,.23-2,9.75,9.75,0,0,0-1.13-5.08,3.78,3.78,0,0,0-3-2.3,3.41,3.41,0,0,0-3.09,1.79A8.94,8.94,0,0,0,160.26,35v.23a15.45,15.45,0,0,0,.23,2.58q-5.7,1.09-15,6.41,10.15-18.21,13.83-25.94a20.37,20.37,0,0,0,5.47,3.12,31,31,0,0,1-4.92-4.29Q161.11,14.57,164.48,6.29ZM183.62,39.8h-.32v-.08h.86v.08h-.39v1.1h-.15Zm.78-.08h.23l.24.79a.62.62,0,0,1,.08.23.56.56,0,0,1,.07-.23l.24-.79h.23V40.9h-.15v-1l-.32,1h-.15l-.32-1v1h-.15Z" transform="translate(-1.03 -2.12)"/><path class="cls-1" d="M193.66,25.27l2-2,2-2V24.1h11.87a2.44,2.44,0,0,1,.43.35c.13.13.28.29.43.47a1.57,1.57,0,0,0,.39.35,2.91,2.91,0,0,1-.5.55c-.24.21-.41.36-.51.47H197.72v3Q195.68,27.31,193.66,25.27Zm5.39-7.34V10.66h7.34c-1.41,1.36-2.5,2.42-3.28,3.21l8.12,8v.94h-1l-8-8Q201.79,15.28,199.05,17.93Zm0,1.95q1.56-1.64,3.2-3.2l1.52,1.52,1.57,1.56,1.48,1.49,1.52,1.52h-9.29Zm0,10.78V27.77h9.29c-.52.57-1.16,1.23-1.91,1.95s-1.5,1.46-2.23,2.19l-1.95,2Zm11.09-2.89h.94v1l-7.89,8,3.2,3.12h-7.27V32.62l3.21,3.2Zm-5.16,9,3.05-3,3.05-3.05V40h-2.89l-1-1L206,37.77Zm3.29-26h3V20l-6.09-6.1Zm1.32-1.41,4.07-4.06L215,6.56,216.43,8l1.29,1.29h-2.89v11.8a1.27,1.27,0,0,1-.31.47c-.16.16-.33.31-.51.47a1.28,1.28,0,0,0-.35.39c-.37-.37-.71-.7-1-1V9.33Zm2.89,19.93.63-.63.55-.55.5.51a3.71,3.71,0,0,0,.59.51V41.21h3c-.47.47-1.15,1.14-2,2l-2,2-4.07-4.06h2.89Zm3.68-9.3V10.58l1.44,0c.65,0,1.13,0,1.45,0,1,1,2.11,2.09,3.2,3.13Zm0,7.73h.93l8,8.05,3.2-3.2v7.34h-7.26l3.2-3.28-8.12-8Zm0,12V30.43l3,3,3.05,3.05-3.2,3.2ZM224,13.55l-3-3h7.34v7.35l-3.28-3.28-8,8.12h-.79v-1l7.19-7.27Zm5.62,10.32V21.21l4.07,4.06-2,2-2,2V26.44H217.72a5.6,5.6,0,0,1-.74-.66l-.51-.51a3,3,0,0,1,.51-.55,2.9,2.9,0,0,0,.5-.54l5.51,0c3,0,4.81,0,5.43,0S229.54,24.13,229.59,23.87Zm-10.7-1.1L225,16.68c1.05,1.09,2.11,2.16,3.21,3.2v2.89Zm6.17,11-3-3.05c-1.36-1.35-2.37-2.37-3.05-3h9.3v3Z" transform="translate(-1.03 -2.12)"/><path class="cls-1" d="M247.48,11.6a19.25,19.25,0,0,1,27.35,0,18.73,18.73,0,0,1,5.66,13.67A19,19,0,0,1,277.91,35a19.22,19.22,0,0,1-7,7.07,19,19,0,0,1-9.76,2.62A18.59,18.59,0,0,1,247.48,39a18.63,18.63,0,0,1-5.66-13.67A18.77,18.77,0,0,1,247.48,11.6Zm13.64-3.91q-2.26,0-4.1,3.32a24.42,24.42,0,0,0-2.54,8.56,2.54,2.54,0,0,0-.08.7,33.54,33.54,0,0,0-.31,3.36v3.28a33,33,0,0,0,.31,3.36,41.27,41.27,0,0,0,4.61.39c.73.05,1.44.08,2.15.08s1.42,0,2.14-.08a41.07,41.07,0,0,0,4.61-.39,2.61,2.61,0,0,0,.55-.08,26,26,0,0,0,7.46-2q2.85-1.32,2.85-3a17.28,17.28,0,0,0-5.19-12.42A16.89,16.89,0,0,0,261.12,7.69Zm0,8.83a8.39,8.39,0,0,1,6.72,3.05l.62.78A8.57,8.57,0,0,1,270,25.27c0,.63-.58,1.17-1.72,1.64a15.54,15.54,0,0,1-4.46.94,21.45,21.45,0,0,1-5.23,0c-.05-.83-.08-1.69-.08-2.58s0-1.74.08-2.58a18.88,18.88,0,0,1,.47-2.81C259.53,17.64,260.23,16.52,261.12,16.52Z" transform="translate(-1.03 -2.12)"/><path class="cls-1" d="M290.06,18.32a2,2,0,0,0,0-.39,1.08,1.08,0,0,1,0-.47,1.92,1.92,0,0,1,.32-.55C290.22,17.69,290.11,18.16,290.06,18.32Zm28.21,4.22a6.92,6.92,0,0,1-.63,2.5l-.55.31a1.3,1.3,0,0,0-.19.7,1.25,1.25,0,0,1-.12.63,13.17,13.17,0,0,1-2.66,2.11c-.1-.05,0-.24.32-.55a6.19,6.19,0,0,0-.63.55,2.74,2.74,0,0,1-.66.5,4,4,0,0,1-1,.36l-.08-.08a5.41,5.41,0,0,1-5.78-.82,6.41,6.41,0,0,1-2.89-5.59,1.26,1.26,0,0,1-.23.39,6.39,6.39,0,0,1,.82-3.47,5.59,5.59,0,0,1,2.54-2.39,5.45,5.45,0,0,1,3.32-.5,5.29,5.29,0,0,1,2.85,1.36,5.08,5.08,0,0,0-4.53-2.18,4.93,4.93,0,0,0-2.66.78,4.36,4.36,0,0,0-1.72,1.79,3.25,3.25,0,0,0-1,1.53,6.33,6.33,0,0,1-.59,1.29,7.55,7.55,0,0,0,.59,4.72A11.94,11.94,0,0,0,306.23,30c.21.05.29.17.24.35l-.08.27a8.19,8.19,0,0,1-2.5-1.95,6.24,6.24,0,0,0,1.33,1.48,1.85,1.85,0,0,1-.55-.31,6.94,6.94,0,0,1-1.17-1.17,5.14,5.14,0,0,0-.43-.51c-.13-.13-.22-.19-.27-.19a7.84,7.84,0,0,0,3.94,3.28q2.85,1.24,4.73.47a9.87,9.87,0,0,1-3.91-.39l-.51-.36a3.75,3.75,0,0,1-.46-.39q-.19-.2-.12-.27A9.28,9.28,0,0,0,316.23,29l.36-.35.35-.35a2.67,2.67,0,0,1,.35-.31l.31-.28a1.33,1.33,0,0,1,.24-.19.37.37,0,0,1,.19-.08c-.15.16-.22.27-.19.35a.67.67,0,0,1,0,.35,1.37,1.37,0,0,0,.23-.9c0-.23.13-.61.55-1.13l.39.55a3.56,3.56,0,0,1,.55-1.72,4,4,0,0,0,.54-2c.16-.26.24-.18.24.23a4.63,4.63,0,0,1-.24,1.33,2,2,0,0,0,.28-1.29c0-.6,0-1,0-1.13a5.54,5.54,0,0,1,.39,1.09,5.53,5.53,0,0,1,0-1.09,3.84,3.84,0,0,1,.23-.86,5,5,0,0,1,.28-.7c-.06-.06-.11-.07-.16,0a.42.42,0,0,1-.16,0s-.1-.07-.15-.2a2.37,2.37,0,0,1-.08-.74,1,1,0,0,1,.23-.47c-.26-.1-.46-.57-.62-1.41,0-.05.1,0,.16.08a1.44,1.44,0,0,0,.19.31,1.39,1.39,0,0,0,.2.24,4.76,4.76,0,0,0-.16-.86,4,4,0,0,1-.16-.94q-.31-.63-.39-.39c-.05.11-.13.05-.23-.16a2,2,0,0,1-.2-.82c0-.13.09-.18.2-.15a1.65,1.65,0,0,0,.31,0c.1,0,.18-.11.24-.32a15.18,15.18,0,0,1,1.56,4.15,18.71,18.71,0,0,0-.78-3s0-.13,0-.55-.06-.5,0-.55.15.19.31.55a7.18,7.18,0,0,0-.9-2.27,15.08,15.08,0,0,0-1.48-2,16.78,16.78,0,0,0-1.76-1.72,10.22,10.22,0,0,0-1.88-1.25c.47.42.65.63.55.63a2.83,2.83,0,0,1-.59-.31l-.31-.28a.67.67,0,0,1-.15-.19,1.19,1.19,0,0,1-.08-.16.79.79,0,0,0-.12-.15,1,1,0,0,0-1-.16,4.54,4.54,0,0,1-.74.16,10.49,10.49,0,0,0-1-.51,7.61,7.61,0,0,0-.78-.32c-.23-.07-.45-.14-.66-.19a7.38,7.38,0,0,1-.74-.23l-.9-.32.08.39a2.29,2.29,0,0,0-1.37-.07,4.68,4.68,0,0,1-1.45.07l.86-.31a4.88,4.88,0,0,1-1.21,0,3,3,0,0,0-1.21.08,5.65,5.65,0,0,0,.94-.55l-1.17.24c-.52,0-.78,0-.78-.08a6.89,6.89,0,0,0-1.1.43c-.52.23-1,.43-1.33.58s-.79.37-1.28.63-1,.52-1.37.78a6.45,6.45,0,0,0-1.1.86V8.71a5.61,5.61,0,0,1-.82.82l-1.13,1a14.3,14.3,0,0,0-1,1.06,2.15,2.15,0,0,0-.55.94l-.16.08-.93,2c-.32.57-.55.73-.71.47a35,35,0,0,0-1.87,5.15,4.19,4.19,0,0,1,.08,1c0,.52,0,1.08,0,1.68a13.78,13.78,0,0,0,0,1.91,18.39,18.39,0,0,0,1.67,8.63,21.53,21.53,0,0,0,5.2,7.23,17.1,17.1,0,0,0,6.95,4,18.31,18.31,0,0,0,4.14.4c-.46-.11-1-.21-1.64-.32a9.61,9.61,0,0,1-1.79-.47,3.75,3.75,0,0,1-.9-.5,4.75,4.75,0,0,1-.71-.71c-.23-.28-.42-.5-.58-.66L303,43a3.6,3.6,0,0,1-1.25-.55,3.82,3.82,0,0,0-1-.55l.39-.47a1.53,1.53,0,0,1-.94-.47,2.28,2.28,0,0,1-.7-.85l-.55.07q-1.1-1.32-1-1.95l-.23.31a2.12,2.12,0,0,0-.39-.54c-1-1.31-1.38-2-1.17-2a.62.62,0,0,1,.23.08,6.09,6.09,0,0,1-.78-.86l.23-.31c-.73-.94-1.06-1.61-1-2a1.56,1.56,0,0,0,.7.62,5,5,0,0,0-.86-1.64c-.26-.26-.45-.35-.58-.27s-.3,0-.51-.23A4.25,4.25,0,0,1,293,29.8l.16-.08-.39-.78.08-1a3.42,3.42,0,0,1-.43-1.45,10.19,10.19,0,0,1-.08-1.79c0-.55.09-1.29.19-2.23s.16-1.56.16-1.88A6.09,6.09,0,0,1,293.3,19a17.35,17.35,0,0,0,.82-1.64l-.31-.08a12.8,12.8,0,0,1,2.5-2.93c1.25-1.17,2.19-1.73,2.81-1.68l.24-.39-.08.08-.39.08a6.81,6.81,0,0,1,1.17-1,2.57,2.57,0,0,1,1.1-.31,4.43,4.43,0,0,0,.86-.12l.31-.31a.46.46,0,0,1-.31.08c-.37,0-.53,0-.47-.08a5,5,0,0,0,1.09-.39c.31-.16.55-.29.7-.39a2.77,2.77,0,0,1,.78-.31c.37-.11.84-.21,1.41-.32.11.06.05.13-.15.24a2.43,2.43,0,0,0-.71.23,7.17,7.17,0,0,1,3.56-.47,11.76,11.76,0,0,1,4,.94,11.11,11.11,0,0,1,3.95,3.48,8.82,8.82,0,0,1,1.91,5h.08c0,.26,0,.7,0,1.33s0,1.19,0,1.71a4.71,4.71,0,0,1-.28,1.41Zm-26.88-8.6c0,.06.09.07.27,0s.15.17-.11.59l-.32.31h-.07A1.32,1.32,0,0,0,291.39,13.94ZM301.94,27.3l.66,1.17a9.16,9.16,0,0,0,.59.94,10.88,10.88,0,0,1-1.33-1.64Zm1-.08.24.63a8.07,8.07,0,0,1-.78-1.48A5.35,5.35,0,0,0,303,27.22Zm3.83-21.64h-.31a11.71,11.71,0,0,1,1.87-.15c-.15,0-.41,0-.78,0A3.48,3.48,0,0,0,306.78,5.58Zm-.16.32.94.15a.62.62,0,0,0-.23.08c.05,0-.13-.1-.55-.16A.21.21,0,0,0,306.62,5.9Zm2.74,20.78a1.81,1.81,0,0,0,.78.15,5,5,0,0,0,.63-.54,3.57,3.57,0,0,1-1.65.08C308.66,26.42,308.73,26.52,309.36,26.68Zm3.28-1.17a4.18,4.18,0,0,0,.78-1.72,6.1,6.1,0,0,1-.54,1.17c-.37.26-.55.34-.55.23a1.44,1.44,0,0,1,.23-.54l.32-.63a5.3,5.3,0,0,0-.59.9c-.08.18-.08.29,0,.31l.23.08A.18.18,0,0,1,312.64,25.51ZM314,22.15c-.05.2-.13.15-.24-.16l-.07-.23a.53.53,0,0,1,.15-.39c.05-.11.11-.08.16.07Zm7.11,1.17a12.38,12.38,0,0,1-1.25,3.9A12.7,12.7,0,0,0,321,23.55Z" transform="translate(-1.03 -2.12)"/><path class="cls-1" d="M338.15,6.83a136.91,136.91,0,0,1,17.69,3.71,59.6,59.6,0,0,1,12,4.61,25.43,25.43,0,0,1,6.32,4.65A7,7,0,0,1,376.27,24q.09,4.31-8,9.14A79.06,79.06,0,0,1,352,40.66l-8.13,2.74a1.2,1.2,0,0,1-.35.11l-.86.16a2,2,0,0,1-1.21-.12,4.1,4.1,0,0,1-2.66-1.87,3.52,3.52,0,0,1,.16-3.75,3.7,3.7,0,0,1,2.89-1.8c.52-.16,1.24-.34,2.15-.55s2.6-.65,5.08-1.32,4.76-1.4,6.87-2.15a52.75,52.75,0,0,0,6.53-2.89,19.8,19.8,0,0,0,5.07-3.56,5,5,0,0,0,1.53-4.06q-.19-2.27-3.13-4.53T356,12.15A155.51,155.51,0,0,0,338.15,6.83Z" transform="translate(-1.03 -2.12)"/><path class="cls-1" d="M392.17,11.13a20,20,0,0,1,28.28,0,19.26,19.26,0,0,1,5.86,14.14,19.25,19.25,0,0,1-5.86,14.14,20,20,0,0,1-28.28,0,19.28,19.28,0,0,1-5.86-14.14A19.3,19.3,0,0,1,392.17,11.13Zm14.14-4.22a17.71,17.71,0,0,0-13,5.39,17.71,17.71,0,0,0-5.39,13,17.73,17.73,0,0,0,2.74,9.61,28.61,28.61,0,0,0,5.93-1.41,6.46,6.46,0,0,1-.93-1.17,13.49,13.49,0,0,1-2.27-6.48,13.94,13.94,0,0,1,1-6.64,17,17,0,0,1,3.83-5.78A12.7,12.7,0,0,1,405,9.57a8.86,8.86,0,0,1,3.91.08,7.22,7.22,0,0,1,3.36,2,7.36,7.36,0,0,1,1.8,3.51,9.47,9.47,0,0,1-.08,4,16.5,16.5,0,0,1-3.91,7,31.4,31.4,0,0,1-9.45,7.66A10.8,10.8,0,0,0,405.06,35a12.8,12.8,0,0,0,6-1.25,20.07,20.07,0,0,0,5.08-3.36A32.44,32.44,0,0,0,424,20.27a18.24,18.24,0,0,0-3.63-6.83,18.45,18.45,0,0,0-6.22-4.77A17.86,17.86,0,0,0,406.31,6.91Zm18.13,15.94a33.59,33.59,0,0,1-6.64,8.67,22,22,0,0,1-7.74,4.92,13.19,13.19,0,0,1-9.06.08A12.64,12.64,0,0,1,398.27,35a36.69,36.69,0,0,1-6.1,1.95,18.42,18.42,0,0,0,6.25,4.92,18.26,18.26,0,0,0,20.86-3.59,17.66,17.66,0,0,0,5.39-13A12.81,12.81,0,0,0,424.44,22.85ZM406.39,10.66a7.35,7.35,0,0,0-3.67,1,12.69,12.69,0,0,0-5,5.7,17.46,17.46,0,0,0-2,6.25,11.14,11.14,0,0,0,1.25,6.49,8.43,8.43,0,0,0,2,2.42,5.28,5.28,0,0,0,1.09-.55,25.52,25.52,0,0,0,9.53-7.66A13.67,13.67,0,0,0,412.41,18a7.13,7.13,0,0,0-.39-3.44,5.73,5.73,0,0,0-5.63-3.91Z" transform="translate(-1.03 -2.12)"/><path class="cls-1" d="M468.62,39.41a19.26,19.26,0,0,1-14.14,5.86H439.55A4.89,4.89,0,0,1,436,43.79a4.8,4.8,0,0,1-1.48-3.52v-15a19.26,19.26,0,0,1,5.86-14.14,19.25,19.25,0,0,1,14.14-5.86,19.82,19.82,0,0,1,10.07,2.66,19.41,19.41,0,0,1,7.27,7.26,19.88,19.88,0,0,1,2.66,10.08A19.28,19.28,0,0,1,468.62,39.41ZM454.48,6.6a18,18,0,0,0-13.21,5.47,18,18,0,0,0-5.47,13.2v15a3.53,3.53,0,0,0,1.1,2.58,3.6,3.6,0,0,0,2.65,1.09h14.93a18,18,0,0,0,13.2-5.47,18,18,0,0,0,5.47-13.2,18,18,0,0,0-5.47-13.2A18,18,0,0,0,454.48,6.6ZM451,24.41h-3.75a2.09,2.09,0,0,0-1.56.63,2,2,0,0,0-.63,1.48,2.13,2.13,0,0,0,2.11,2.11h3.2c.42,0,.63.24.63.7v4.14a4.81,4.81,0,0,1-4.77,4.77c-.31,0-.63,0-1,0l-.75,0a2.07,2.07,0,0,0-1.52.59,2,2,0,0,0-.58,1.44,1.91,1.91,0,0,0,.5,1.29,2.66,2.66,0,0,0,1.29.82,9.55,9.55,0,0,0,2,.24,9.08,9.08,0,0,0,9.07-9.07V28.63h3.82a2.16,2.16,0,0,0,1.57-.62,2.07,2.07,0,0,0,.62-1.49,2,2,0,0,0-.31-1.05,2.24,2.24,0,0,0-.78-.78,2.07,2.07,0,0,0-1.1-.28H456a.62.62,0,0,1-.7-.7V19.57a4.58,4.58,0,0,1,1.4-3.36,4.69,4.69,0,0,1,3.44-1.41c.31,0,.62,0,.94,0s.57,0,.78,0a2.12,2.12,0,0,0,1.52-.55,2,2,0,0,0,.08-2.77,2.71,2.71,0,0,0-1.37-.82,8.42,8.42,0,0,0-1.95-.23,8.87,8.87,0,0,0-6.45,2.65A8.7,8.7,0,0,0,451,19.57Z" transform="translate(-1.03 -2.12)"/><path class="cls-1" d="M484.46,7.85q2,0,5.93,2.11a21,21,0,0,0-3.08,2.62,15.74,15.74,0,0,0-2.54,3.16q-3.12-5.94-1.64-7.42A1.65,1.65,0,0,1,484.46,7.85Zm15.86.31a17,17,0,0,1,4,.55A16.21,16.21,0,0,1,508.05,10l-1.09.62c-1.1-.31-1.88-.23-2.35.24s-.57,1.56,0,3a12.82,12.82,0,0,0,3,4.17A13.33,13.33,0,0,0,511.76,21c1.38.58,2.36.58,2.93,0A2,2,0,0,0,515,19l.79-1.25a19.75,19.75,0,0,1,.89,2.38,20.82,20.82,0,0,1,.67,2.78,16.1,16.1,0,0,1,.23,2.5,16.7,16.7,0,0,1-5,12.19,17.23,17.23,0,0,1-24.41,0,16.67,16.67,0,0,1-5.08-12.23,16.52,16.52,0,0,1,5.08-12.19A16.68,16.68,0,0,1,500.32,8.16Zm11.48,1q4.38-2.07,5.66-.82T516.68,14a22.73,22.73,0,0,1-3.32,5.67c-.41.41-1.13.43-2.15,0a9.12,9.12,0,0,1-3-2.07,8.85,8.85,0,0,1-2.07-3c-.39-1-.38-1.73,0-2.15A22.84,22.84,0,0,1,511.8,9.14Z" transform="translate(-1.03 -2.12)"/><path class="cls-1" d="M546.45,5.25a13.29,13.29,0,0,1,5.39,1.1,41.75,41.75,0,0,1,10.66,7.22q5.43,4.89,6.29,7.85a8.88,8.88,0,0,1,.16,2.46,5.45,5.45,0,0,1-.55,2.31q-1.49,2.89-7.42,7.73a74.51,74.51,0,0,1-6.64,4.93,57.52,57.52,0,0,1-7.27,4.06,25.63,25.63,0,0,1-6.79,2.26,8.3,8.3,0,0,1-5.55-.86,8.39,8.39,0,0,1-3.36-3.51,7.86,7.86,0,0,1-.55-3.67q0-2.51,3.44-6.17c1.15-1.2,3.07-2.95,5.78-5.24-.31-.16-.88-.45-1.72-.9l-2-1.05a15.21,15.21,0,0,1-1.72-1.1,8.82,8.82,0,0,1-1.52-1.32,5.23,5.23,0,0,1-1.48-4.22,10.31,10.31,0,0,1,1.83-4.53A16.89,16.89,0,0,1,538,8.14a16.14,16.14,0,0,1,6.37-2.65A9.16,9.16,0,0,1,546.45,5.25Zm0,.16h-.39a14.86,14.86,0,0,0-9.81,4.22c-2.83,2.65-4.18,5.08-4,7.26a3.39,3.39,0,0,0,.43,1.25,4.65,4.65,0,0,0,.94,1.17,14.16,14.16,0,0,0,1.33,1.1,15.45,15.45,0,0,0,1.56,1c.55.32,1.09.62,1.64.9s1,.54,1.52.74l1.25.55.86.35c.21.08.31.15.31.2q-3,2.58-4.92,4.3a26.54,26.54,0,0,0-4.92,5.39,5.08,5.08,0,0,0-.39,4.68,5.67,5.67,0,0,0,2.23,3,5.38,5.38,0,0,0,3.16.82,28,28,0,0,0,3.83-.47,38.86,38.86,0,0,0,11.8-5,57.62,57.62,0,0,0,11.28-8.51q4.58-4.53,4.11-7-.56-2.8-6.06-7.65A46.82,46.82,0,0,0,552,6.66,11.51,11.51,0,0,0,546.45,5.41Zm-.16.86c1.83,0,4.2.75,7.11,2.42A41.51,41.51,0,0,1,563,16.42a20.26,20.26,0,0,1,2.81,3.68,3.2,3.2,0,0,1,.32,2.57,18.52,18.52,0,0,1-3,3.36,64.65,64.65,0,0,1-5.71,5.08,53,53,0,0,1-13.51,8,18.56,18.56,0,0,1-4.77,1.17,8.18,8.18,0,0,1-4.14-.55A3.61,3.61,0,0,1,533.36,38a4.78,4.78,0,0,1-.35-2.46,4.64,4.64,0,0,1,.39-1.25,6.85,6.85,0,0,1,.94-1.49c.42-.52.81-1,1.17-1.4a20.3,20.3,0,0,1,1.6-1.57c.71-.62,1.24-1.1,1.6-1.44s1-.86,1.76-1.56,1.34-1.16,1.6-1.37c1.51-1.3,1.91-2.14,1.18-2.5l-2.31-1.1c-1.22-.57-2.12-1-2.69-1.28s-1.28-.68-2.11-1.18a17.69,17.69,0,0,1-2-1.36,2.37,2.37,0,0,1-.79-2.43,9.7,9.7,0,0,1,3.91-5.7,26.89,26.89,0,0,1,4.1-2.69,14.62,14.62,0,0,1,4.1-.9Zm1.8,6h-.16c-2,.06-3,1.33-3.2,3.83-.05,1.2.77,2.24,2.46,3.13s3,1.17,3.95.86A5.79,5.79,0,0,0,554,18.34a2,2,0,0,0,.39-2,5.19,5.19,0,0,0-1.25-1.8,8,8,0,0,0-2-1.37A7,7,0,0,0,548.09,12.28Zm.31,2.27a4.42,4.42,0,0,1,3.32,1.29q1.46,1.36-.35,3h-.08c0-.37-.56-.68-1.68-.94s-1.75-.21-1.91.15c-1-.78-1.15-1.79-.31-3A1,1,0,0,1,548.4,14.55Z" transform="translate(-1.03 -2.12)"/><path class="cls-1" d="M587.8,39.45a12.15,12.15,0,0,1-4.14-9.33v-10H579V7.3l19.92.16h6.17a14,14,0,0,1,9.81,3.79,12.13,12.13,0,0,1,4.1,9.26V43.24H597.56A14,14,0,0,1,587.8,39.45Zm10,3.17h20.54V20.9A11.56,11.56,0,0,0,614.4,12,13.49,13.49,0,0,0,605,8.4l-5.93-.08L580,8.24v11h4.54V30.12a11.77,11.77,0,0,0,1.83,6.36A12.5,12.5,0,0,0,591.23,41,13.91,13.91,0,0,0,597.8,42.62Zm17.58-5.79a2.59,2.59,0,0,1-.47,1.53,3,3,0,0,1-1.25,1,3.87,3.87,0,0,1-1.64.35H597.8a10.42,10.42,0,0,1-7.35-2.81,8.9,8.9,0,0,1-3-6.79V19.18a2.87,2.87,0,0,0-2.74-2.81h-1.79V11.21l16.17.08H605a10.42,10.42,0,0,1,7.35,2.81,8.92,8.92,0,0,1,3,6.8ZM601.39,17a4.78,4.78,0,0,0-3.55,1.48,5,5,0,0,0-1.45,3.6v6.87h3.13V22.07a1.86,1.86,0,0,1,1.83-1.88,1.77,1.77,0,0,1,1.29.55,1.83,1.83,0,0,1,.55,1.33v6.87h3.12V22.07a1.88,1.88,0,0,1,1.88-1.88,1.71,1.71,0,0,1,1.29.55,1.87,1.87,0,0,1,.5,1.33l.08,8.05A2.87,2.87,0,0,1,609,32.38a3.93,3.93,0,0,1-2.66.94l-10.15-.08a2.62,2.62,0,0,1-2.11-1.05,3.87,3.87,0,0,1-.86-2.54V14.41h-3V30.19a6.25,6.25,0,0,0,5.39,6.18h11.25a6.18,6.18,0,0,0,4.53-1.88,6.44,6.44,0,0,0,1.8-3.83V22.07a4.91,4.91,0,0,0-1.49-3.6,4.9,4.9,0,0,0-7-.07A4.59,4.59,0,0,0,601.39,17Z" transform="translate(-1.03 -2.12)"/><path class="cls-1" d="M627.13,5.27H653V17H638.85V45.27H627.13Zm14.14,40V19.41H653V45.27Zm14.14,0v-40h11.72v40Z" transform="translate(-1.03 -2.12)"/><path class="cls-1" d="M691,18.71l-9.77,16.95L679,31.76l2.65-4.54h-5.23l-1.09-1.95,1.17-1.95,7.42.08,2.66-4.61Zm7.81-.47H679.36l2.19-3.91,5.23.08-2.66-4.53,1.18-2h2.26l3.67,6.4,5.32.08Zm-11.33,7.42,9.77,16.88-4.45.08-2.66-4.54-2.58,4.54H685.3l-1.1-2,3.68-6.48-2.58-4.61Zm0,0,9.77,16.88-4.45.08-2.66-4.54-2.58,4.54H685.3l-1.1-2,3.68-6.48-2.58-4.61Zm4.3,6.56h19.45l-2.18,3.91h-5.24l2.58,4.53-1.09,1.88H703l-3.67-6.41h-5.31Zm11.33-7.34L693.34,8l4.54-.08,2.57,4.53L703,7.93h2.27l1.09,2-3.67,6.49,2.66,4.6Zm-3.52,6.88,9.77-16.88,2.26,3.91L709,23.32h5.23l1.1,1.95-1.18,1.95-7.42-.07-2.65,4.61Z" transform="translate(-1.03 -2.12)"/><path class="cls-1" d="M740.08,31.68l-2.5-1.25L737.5,30a7.4,7.4,0,0,0-.31-.94,7.12,7.12,0,0,0-2-2.93,6.13,6.13,0,0,0-3-1.52c-2.65-.47-4.53.34-5.62,2.42a3.86,3.86,0,0,0,.11,3.79,4,4,0,0,0,3.25,2.22,3.17,3.17,0,0,0,3-.93,2.36,2.36,0,0,0,.24-2.66,2.43,2.43,0,0,0-2-1.48,1.48,1.48,0,0,0-1.49.54,1.3,1.3,0,0,0-.15.55.76.76,0,0,0,.27.66.89.89,0,0,0,.51.2h.47l.15-.08H731V29.8a.93.93,0,0,1,1.09.71v.23a.76.76,0,0,1-.39.7l-.08.08a2.58,2.58,0,0,1-.39.16,3.8,3.8,0,0,1-1,.15,2.35,2.35,0,0,1-1.13-.31,2.84,2.84,0,0,1-1-.94,2.51,2.51,0,0,1-.43-1.48A2.71,2.71,0,0,1,729,26.68a3.82,3.82,0,0,1,4.37.08,4.3,4.3,0,0,1,1.92,2.38,4.59,4.59,0,0,1,.11,2.85,4.51,4.51,0,0,1-2.07,2.7,5.68,5.68,0,0,1-3.63.66,6.16,6.16,0,0,1-4.92-2.81,6,6,0,0,1-1.09-2.27,6.89,6.89,0,0,1,.39-4.45,14.7,14.7,0,0,1,6.09-6.88l.23-.07a24.91,24.91,0,0,1,5.82-2.7,20.93,20.93,0,0,1,4.42-1c1,0,2.26,0,3.83,0a30.17,30.17,0,0,1,8.59,1.72V15.58h.08c3.85.52,6.59,1.25,8.2,2.19a4.83,4.83,0,0,1,.63.55,7.33,7.33,0,0,1,.93,1.95,10.76,10.76,0,0,1,.63,2.11s-.13.05-.23.16a6,6,0,0,1-3.52,1.17,14.42,14.42,0,0,1-5.7-2.5c.41.94.65,1.46.7,1.56q3.51,1.88,5.16,1.8a5.79,5.79,0,0,0,3.2-1h.23v.16a5.17,5.17,0,0,1-.15.62l-.08.08a.91.91,0,0,1-.24.47,5.67,5.67,0,0,1-1.64.86,11.55,11.55,0,0,1-5.15.86,15.89,15.89,0,0,1-2-.16,5.48,5.48,0,0,0-2.22,0,1.4,1.4,0,0,0-1.06,1.25,4,4,0,0,0,.28,2.07,8.47,8.47,0,0,0,.78,1.68q.35.55.51.78v.08h-.08c-2-.93-3-1.43-3.05-1.48h-.16l-.07-.08c-.26-.26-.78-.86-1.57-1.8A5.24,5.24,0,0,0,742,27a2.48,2.48,0,0,0-1.17.7c-.63.58-.86,1.62-.71,3.13a2.84,2.84,0,0,0,.08.78v.08Zm13.67.15v-.46l-.07.15h-.16l-.08-.15v.46c0,.06,0,.08-.08.08s-.07,0-.07-.08v-.54h-.24v.54c0,.06,0,.08-.08.08h-.08v-.62h-.31v-.08a.07.07,0,0,1,.08-.08h.78v.08l.16.23.15-.23a.07.07,0,0,1,.08-.08h.08v.7c0,.06,0,.08-.08.08S753.75,31.89,753.75,31.83Zm3.13-11.64a2.51,2.51,0,0,0,.31,1.21,2.31,2.31,0,0,0,.82.9,2.83,2.83,0,0,0,1.21.39A2.44,2.44,0,0,0,760.9,22a2.2,2.2,0,0,0,.78-1.64,2.27,2.27,0,0,0-.66-1.72,2.41,2.41,0,0,0-1.68-.78,2.14,2.14,0,0,0-1.68.66A2.35,2.35,0,0,0,756.88,20.19ZM759.3,22a2.53,2.53,0,0,1-.86-.31,1.53,1.53,0,0,1-.58-.63,1.88,1.88,0,0,1-.2-.86,1.52,1.52,0,0,1,.51-1.17,1.62,1.62,0,0,1,1.21-.43,1.82,1.82,0,0,1,1.21.55,1.54,1.54,0,0,1,.47,1.21,1.66,1.66,0,0,1-.55,1.17A1.73,1.73,0,0,1,759.3,22Zm1.09-2.07c0-.34-.24-.51-.74-.51s-.74.17-.74.51.26.51.78.51S760.39,20.26,760.39,19.92Z" transform="translate(-1.03 -2.12)"/><path class="cls-1" d="M780.06,5.27l1.1.31a2.28,2.28,0,0,1,.54-.07.63.63,0,0,1,.35.07,1.36,1.36,0,0,0,.32.16.66.66,0,0,1,.27.16,1.83,1.83,0,0,1,1.72.7l.47-.08A5.64,5.64,0,0,1,787.25,10a5.64,5.64,0,0,1,2.42-3.52l.47.08c.05,0,.11-.1.16-.16a1.28,1.28,0,0,1,.39-.39l.47-.19a.91.91,0,0,1,.7,0,1.58,1.58,0,0,1,.39-.24,1.26,1.26,0,0,1,.43-.15,6.53,6.53,0,0,1,.66.07,1.28,1.28,0,0,0,.43-.11l.43-.16a.85.85,0,0,1,.39,0,.91.91,0,0,1,.47.27,1.45,1.45,0,0,1,1.72.16,1.35,1.35,0,0,1,1.33.31,2.22,2.22,0,0,1,1.87.63,1.27,1.27,0,0,1,1.29.47,1,1,0,0,1,0,1.17,1.3,1.3,0,0,1-.07,1.64,1.44,1.44,0,0,1-.47,1.56,1.25,1.25,0,0,1-.63,1.41c.05.52-.28,1-1,1.48a1.72,1.72,0,0,1-1.33,1.25c-.11.47-.57.81-1.41,1A8.16,8.16,0,0,1,799,19.06a6.83,6.83,0,0,1,.94,3.87l.31.47a6.07,6.07,0,0,1,1.95,2.22,6.34,6.34,0,0,1,.67,3.4,6,6,0,0,1-1.53,3.6c-.1.46-.39,1.4-.86,2.81a6.08,6.08,0,0,1-1.75,3.67,5.91,5.91,0,0,1-2.47,1.64,15.22,15.22,0,0,1-4,2.34,6.8,6.8,0,0,1-10,0,15.22,15.22,0,0,1-4-2.34,5.91,5.91,0,0,1-2.47-1.64,6.08,6.08,0,0,1-1.75-3.67c-.47-1.41-.76-2.35-.86-2.81a6,6,0,0,1-1.53-3.6,6.34,6.34,0,0,1,.67-3.4,6.07,6.07,0,0,1,1.95-2.22l.31-.47a6.83,6.83,0,0,1,.94-3.87,8.49,8.49,0,0,1,2.58-2.38c-.78-.21-1.22-.55-1.33-1a1.72,1.72,0,0,1-1.33-1.25c-.73-.47-1.06-1-1-1.48a1.25,1.25,0,0,1-.63-1.41,1.44,1.44,0,0,1-.47-1.56,1.3,1.3,0,0,1-.07-1.64,1,1,0,0,1,0-1.17,1.27,1.27,0,0,1,1.29-.47,2.22,2.22,0,0,1,1.87-.63,1.35,1.35,0,0,1,1.33-.31,1.45,1.45,0,0,1,1.72-.16A.92.92,0,0,1,780.06,5.27Zm-4.61,19a.21.21,0,0,0-.15.07,4.34,4.34,0,0,0-2.11,2.46,5.25,5.25,0,0,0-.2,3A3.84,3.84,0,0,0,774.36,32c.42.21.83-.21,1.25-1.25a10.17,10.17,0,0,0,.62-5.47C776.08,24.59,775.82,24.26,775.45,24.26Zm4.69-18c.26.36.31.62.16.78a4.07,4.07,0,0,0-1.8-.7.91.91,0,0,0,.23.15,2.44,2.44,0,0,0,.24.31c0,.06,0,.13-.08.24a5.7,5.7,0,0,0-1.64-.39c.36.31.44.54.23.7a4.18,4.18,0,0,0-2-.23l.47.47a7.58,7.58,0,0,1-1.8.07,4.43,4.43,0,0,1,.71,1.41,1.72,1.72,0,0,1-.78,0,1.67,1.67,0,0,0,.62.82c.31.23.47.4.47.51a1.21,1.21,0,0,1-.86,0,15.54,15.54,0,0,0,1.25,1.33c-.1.1-.34.13-.7.07a6.45,6.45,0,0,0,1.4,1.18,2.27,2.27,0,0,1-.78.15,9.56,9.56,0,0,0,1.8,1.1,1.53,1.53,0,0,1-.78.15,6.79,6.79,0,0,0,1.87.78c-.05.16-.23.26-.54.32a3.73,3.73,0,0,0,1.25.31,2.75,2.75,0,0,1,.86.15.77.77,0,0,1-.47.4,8,8,0,0,0,1.68,0,5.6,5.6,0,0,0,2-.71,2.75,2.75,0,0,0,1.37-1.75q-2-2.19-7.19-4.85a24,24,0,0,1,7.81,4.14,2,2,0,0,0,1.33-1.72,3.78,3.78,0,0,0-.47-2.15,7.85,7.85,0,0,0-1.33-1.75c-.05.36-.13.57-.23.62l-1.25-1.33a.84.84,0,0,1-.23.71,2.9,2.9,0,0,0-1.18-1c.16.21.13.44-.08.7A5.52,5.52,0,0,0,780.14,6.29Zm-3.28,26a1.78,1.78,0,0,0-.94.24c-.47.26-.69.9-.66,1.91a6.13,6.13,0,0,0,.9,3,5.19,5.19,0,0,0,2.89,2.3c1.14.34,1.92.3,2.34-.11a2.28,2.28,0,0,0,.51-2.27,6,6,0,0,0-1.29-2.89Q778.66,32.22,776.86,32.3Zm4.06-15a5.26,5.26,0,0,0-3.71,1.53,5,5,0,0,0-1.37,3.86c.06.73,1.31.06,3.75-2s3.16-3.07,2.58-3.28A10.49,10.49,0,0,0,780.92,17.3Zm1.64,4.38a5.07,5.07,0,0,0-1.36.39,7.25,7.25,0,0,0-1.45.82A4,4,0,0,0,778.66,24a5.14,5.14,0,0,0-.9,3.48,3.59,3.59,0,0,0,1.6,2.77l.08.08a3.66,3.66,0,0,0,3.12.35,5,5,0,0,0,2.89-2.15,5.11,5.11,0,0,0,.9-3.47,3.61,3.61,0,0,0-1.6-2.78h-.08A3.76,3.76,0,0,0,782.56,21.68ZM787.48,30h-.15a4.5,4.5,0,0,0-3.21,1.25,4,4,0,0,0,0,5.93,4.73,4.73,0,0,0,6.41,0,3.91,3.91,0,0,0,1.33-3,3.85,3.85,0,0,0-1.29-2.93A4.65,4.65,0,0,0,787.48,30Zm.24,9.76h-.39a7.8,7.8,0,0,0-3,.47c-1,.37-1.56.78-1.56,1.25,0,.21.2.52.62.94a6,6,0,0,0,1.72,1.13,4.22,4.22,0,0,0,2.11.43,5.28,5.28,0,0,0,3-1c1-.68,1.46-1.25,1.4-1.72s-.41-.77-1.24-1.06A8.33,8.33,0,0,0,787.72,39.8ZM787,16.52a4.63,4.63,0,0,0-2.66.86c-.83.57-1.25,1.12-1.25,1.64a1.5,1.5,0,0,0,.51,1.06,4,4,0,0,0,1.48.86,8.37,8.37,0,0,0,2.15.43,6.2,6.2,0,0,0,3-.63c.75-.42,1.13-.91,1.13-1.48S790.93,18,790,17.38a5.17,5.17,0,0,0-2.77-.86Zm4.76,4.92a4.13,4.13,0,0,0-1.95.63h-.08a3.59,3.59,0,0,0-1.6,2.77,5.27,5.27,0,0,0,.9,3.52,4.86,4.86,0,0,0,2.89,2.15,4,4,0,0,0,3.2-.39V30a3.61,3.61,0,0,0,1.6-2.78,5.51,5.51,0,0,0-4.8-5.82Zm2.66-15.15a5.71,5.71,0,0,0-1.49.93.53.53,0,0,1-.07-.7,3.74,3.74,0,0,0-1.18,1,.84.84,0,0,1-.23-.71l-1.25,1.33c-.11-.05-.18-.26-.24-.62a6.41,6.41,0,0,0-1,1.25,7.42,7.42,0,0,0-.71,1.56,2.43,2.43,0,0,0,0,1.6,2.28,2.28,0,0,0,1.22,1.21A24,24,0,0,1,797.33,9q-5.24,2.65-7.19,4.85a2.77,2.77,0,0,0,2,2.14,7.67,7.67,0,0,0,3.13.36c-.31-.11-.5-.24-.55-.4a2.67,2.67,0,0,1,.86-.15,3.73,3.73,0,0,0,1.25-.31.86.86,0,0,1-.55-.32,6.9,6.9,0,0,0,1.88-.78,1.51,1.51,0,0,1-.78-.15,9,9,0,0,0,1.79-1.1,2.42,2.42,0,0,1-.78-.15,8.71,8.71,0,0,0,1.49-1.18c-.42.06-.68,0-.78-.07a15.54,15.54,0,0,0,1.25-1.33,1.21,1.21,0,0,1-.86,0c0-.11.15-.28.47-.51a1.67,1.67,0,0,0,.62-.82,1.72,1.72,0,0,1-.78,0,4.38,4.38,0,0,1,.7-1.41h-.54c-.89,0-1.31,0-1.25-.07l.46-.47a4.19,4.19,0,0,0-2,.23c-.2-.16-.1-.39.32-.7a5.78,5.78,0,0,0-1.72.39c-.16-.11-.11-.29.15-.55a.83.83,0,0,0,.24-.15,4.07,4.07,0,0,0-1.8.7C794.12,6.91,794.18,6.65,794.44,6.29Zm-1.25,11.09a5.81,5.81,0,0,0-1.33.16c-.63.1.21,1.12,2.5,3,2.45,2.14,3.72,2.89,3.83,2.27a4.92,4.92,0,0,0-5-5.47Zm4.22,14.22c-1,0-2.16.86-3.52,2.42a7,7,0,0,0-1.52,3,2.64,2.64,0,0,0,.35,2.58,2,2,0,0,0,1,.39,3.66,3.66,0,0,0,1.37-.12,5.21,5.21,0,0,0,1.6-.78,6.62,6.62,0,0,0,1.57-1.52,5.48,5.48,0,0,0,.85-3.25,4,4,0,0,0-.7-2.46A1.77,1.77,0,0,0,797.41,31.6Zm1.25-7.42q-1.33,0-.78,3.9c.36,2.45.91,3.73,1.64,3.83a.28.28,0,0,0,.23-.08,3.75,3.75,0,0,0,1.33-2.14,5,5,0,0,0-.16-3,4.66,4.66,0,0,0-2.11-2.5Z" transform="translate(-1.03 -2.12)"/><path class="cls-1" d="M825.65,13.51a20,20,0,0,1,28.28,0,19.26,19.26,0,0,1,5.86,14.14,19.45,19.45,0,0,1-3.2,10.79,12.14,12.14,0,0,0-2.43-.24,9.79,9.79,0,0,0-3.67.63.31.31,0,0,0-.15.31v.08a.44.44,0,0,1-.08.54,1.94,1.94,0,0,1-.94.39,2.59,2.59,0,0,0-1.09.47,5.31,5.31,0,0,0-1.06,1l-.51.62a2.82,2.82,0,0,1-1.95.63,19.26,19.26,0,0,0,1.33-2,5.27,5.27,0,0,1,.66-1c.29-.34.48-.59.59-.74a5.92,5.92,0,0,0,.86-1.57,2.46,2.46,0,0,0,.19-.93c0-.42,0-.65,0-.71a7.4,7.4,0,0,1,.24-.82c.15-.49.26-.84.31-1a.23.23,0,0,0-.16-.08,2,2,0,0,0-.35.08l-.51.15-.46.16a1.41,1.41,0,0,1-.4.08,2.84,2.84,0,0,1-.93-.2,2.75,2.75,0,0,0-.86-.19,2.45,2.45,0,0,0-.86.23,2.35,2.35,0,0,1-.86.24,2,2,0,0,1-.47-.2,1.72,1.72,0,0,0-.78-.19,4.67,4.67,0,0,0-1.49.19,8.36,8.36,0,0,1-2.34.2,3.44,3.44,0,0,1-2.38-1.06,10.38,10.38,0,0,1-1.6-1.76.59.59,0,0,0-1-.07.85.85,0,0,1-.62.07.48.48,0,0,1-.39-.31,4.2,4.2,0,0,0-2-2,1.57,1.57,0,0,0-1.6.39,1.76,1.76,0,0,0-.51,1.41,2.28,2.28,0,0,0,.28.7,4.25,4.25,0,0,0,.43.59,2.28,2.28,0,0,1,.31.43,2.32,2.32,0,0,0,1,1.09c.36.16.49.39.39.7s-.32.32-.78.32a1.53,1.53,0,0,1-1.18-.32,2.67,2.67,0,0,1-.93-.93,1.57,1.57,0,0,0-1.49-.86,1.46,1.46,0,0,0-.78.23,7.41,7.41,0,0,1-3.36.78H820.8a20.07,20.07,0,0,1-1-6.33A19.26,19.26,0,0,1,825.65,13.51Zm17.5-1.79a6.36,6.36,0,0,0-1.72.23,2.71,2.71,0,0,0-.47.12l-.7.19a6.62,6.62,0,0,1-.82.16,5,5,0,0,1-1.1,0,8.49,8.49,0,0,1-1.29-.2c-2.81-.62-4.47.06-5,2l-.85,3.52a1.05,1.05,0,0,0,0,.94,3.9,3.9,0,0,0,.58,1.05,4.6,4.6,0,0,0,1.8,1.1A20.61,20.61,0,0,0,837.21,22a8.07,8.07,0,0,1,2.19.63,2.22,2.22,0,0,1,.9.62q.12.24.27.63a2.92,2.92,0,0,0,1,1.87c.36.26.26.44-.32.55h-.15a7.44,7.44,0,0,1-2.19-.28,25.58,25.58,0,0,1-3.44-1,20.59,20.59,0,0,1-3.2-1.48c-1.88-1.15-2.47-2.4-1.8-3.75A12.42,12.42,0,0,0,826,20c-1.2.34-1.9.9-2.11,1.68-.26.94.23,2,1.48,3.32a21.52,21.52,0,0,0,5.32,3.75,40.07,40.07,0,0,0,7.34,3,22.27,22.27,0,0,0,11.8.66c3.64-.86,5.7-2.56,6.17-5.12a3.15,3.15,0,0,0-.31-2.18A4.48,4.48,0,0,0,854,23.36a9.1,9.1,0,0,0-2.93-1,3.07,3.07,0,0,1-1.72,2.11.1.1,0,0,1-.16,0c0-.05,0-.13,0-.23.32-.52.55-.94.71-1.25a3.79,3.79,0,0,0-.08-2.5,31.78,31.78,0,0,0-1.64-4.42A10.91,10.91,0,0,0,846.27,13,4.3,4.3,0,0,0,843.15,11.72Zm-9.45,3.36a.64.64,0,0,1,.46.23,1.58,1.58,0,0,0,1.25.7c.16,0,.49,0,1-.07a10.81,10.81,0,0,1,1.29-.08c1.09,0,1.67.23,1.72.7a.47.47,0,0,1-.2.39,2.19,2.19,0,0,1-1,.24c-1.57.1-2.56.39-3,.85a.51.51,0,0,1-.63,0,2,2,0,0,1-.54-.5l-.24-.39a1.17,1.17,0,0,1-.7-.59,1.08,1.08,0,0,1-.08-1.06A.7.7,0,0,1,833.7,15.08Zm9.45-2.43h.15a3.17,3.17,0,0,1,1.14.2,3.28,3.28,0,0,1,.82.43.68.68,0,0,1,.31.55.66.66,0,0,1-.31.54,2.07,2.07,0,0,1-.86.35,5.52,5.52,0,0,1-1.17.12,4.49,4.49,0,0,1-1.18-.15s-.07,0-.07-.08,0-.08.07-.08c.94-.21,1.38-.47,1.33-.78,0-.47-.83-.63-2.34-.47a1.29,1.29,0,0,0-.39.08.08.08,0,1,1,0-.16,4.45,4.45,0,0,1,1.87-.47A2.72,2.72,0,0,1,843.15,12.65Zm.94,24h.07c.26.21.29.49.08.86a1.34,1.34,0,0,1-.47.62,1.23,1.23,0,0,1-1.56,0,1.36,1.36,0,0,0-1-.31c-.21,0-.36,0-.43-.16a.43.43,0,0,1,0-.46.61.61,0,0,1,.47-.43,1.42,1.42,0,0,1,1,.19c.62.37,1,.44,1.25.24A2.81,2.81,0,0,0,844.09,36.64Zm15,.47a.55.55,0,0,1,0,1.09.55.55,0,1,1,0-1.09Zm0,.08c-.32,0-.47.15-.47.46a.41.41,0,0,0,.47.47c.31,0,.46-.15.46-.47A.4.4,0,0,0,859.09,37.19Zm-.16.15h.23a.14.14,0,0,1,.16.16.24.24,0,0,1-.16.23l.16.24h-.08l-.15-.24H859V38h-.08Zm.08.08h.08q.15,0,.15.12c0,.08,0,.11-.15.11H859Z" transform="translate(-1.03 -2.12)"/><path class="cls-1" d="M888.13,5.27A19.43,19.43,0,0,1,902,11.05a19.16,19.16,0,0,1,6,13.83,19.32,19.32,0,0,1-5.58,14.26A20,20,0,0,1,882,44.37a19.63,19.63,0,0,1-5.55-2.77,21.83,21.83,0,0,1-4.42-4.22,18.52,18.52,0,0,1-3-5.47A20.24,20.24,0,0,1,868,25.66a19.33,19.33,0,0,1,5.59-14.26,19.27,19.27,0,0,1,14-6.13ZM871.72,27.38c.47,1.67,1.17,2.61,2.11,2.81a1.61,1.61,0,0,0,1-.54c.28-.32.22-.6-.2-.86a11.12,11.12,0,0,0-2-1.41Zm16-10.62a1.43,1.43,0,0,0-.82.43,1.85,1.85,0,0,0-.47.66c-.08.21-.2.55-.35,1a4.14,4.14,0,0,0-.24.85,20.91,20.91,0,0,0-.5,3.75c-.08,1.41-.11,2.69-.08,3.83s0,2.42,0,3.83a1,1,0,0,0,.08.39.22.22,0,0,1-.16.31c-.21.47-.49.72-.86.75a3.07,3.07,0,0,1-1.41-.39,10.11,10.11,0,0,0-1.09-.51,14.6,14.6,0,0,1-2-.94,5.6,5.6,0,0,0-2.42-.78,1.8,1.8,0,0,0-2.19.62c-.57.73-.44,1.38.39,2a1.51,1.51,0,0,0,.47.54q.32.24.51.36l.62.35.59.31c.57.36,1.44,1,2.62,1.95a23.45,23.45,0,0,0,3.24,2.23,7,7,0,0,0,3.12.9c1.36.26,2.76-.29,4.22-1.64.52-.37,1.43-.91,2.74-1.64a28.27,28.27,0,0,0,2.89-1.8,7.11,7.11,0,0,0,3.12-3.36c.68-.62.72-1.2.12-1.72a1.78,1.78,0,0,0-1.92-.39,15.71,15.71,0,0,0-2.65,1.76,8.72,8.72,0,0,1-3.44,1.76,2.68,2.68,0,0,1-1.64-.86,1.36,1.36,0,0,1-.16-1.64c.06-.06,0-.19,0-.39a.44.44,0,0,1,0-.47,2,2,0,0,0,0-.78,1,1,0,0,1,.12-.71V22.46c-.16-1-.34-2.4-.55-4.06-.05,0-.11-.09-.19-.28a1.48,1.48,0,0,0-.16-.31,1.79,1.79,0,0,1-.15-.23,1.73,1.73,0,0,0-.2-.28l-.23-.23a.82.82,0,0,0-.28-.2l-.27-.08A2.21,2.21,0,0,0,887.74,16.76Zm.15-5.86a.74.74,0,0,0-.62.5,4.54,4.54,0,0,0-.2,1.18c0,.49,0,.82,0,1a.35.35,0,0,0-.2.2.42.42,0,0,0,0,.27,2.3,2.3,0,0,0,.08.27l.08.28a1.59,1.59,0,0,1,0,.23.8.8,0,0,0,.23.74.92.92,0,0,0,.7.36.55.55,0,0,0,.55-.39A7.1,7.1,0,0,0,888.6,12c-.11,0-.17-.06-.2-.2a2.45,2.45,0,0,1,0-.39.63.63,0,0,0-.11-.35A.43.43,0,0,0,887.89,10.9Zm15.55,14.84c-1.87.37-2.94,1.15-3.2,2.34l.08.08a1.22,1.22,0,0,0,1.56.63,3.49,3.49,0,0,0,1.76-1.21,1.22,1.22,0,0,0,.11-1.76A.68.68,0,0,0,903.44,25.74Z" transform="translate(-1.03 -2.12)"/><path class="cls-1" d="M922,11.13a20,20,0,0,1,28.28,0,19.3,19.3,0,0,1,5.86,14.14,19.28,19.28,0,0,1-5.86,14.14,20,20,0,0,1-28.28,0,19.25,19.25,0,0,1-5.86-14.14A19.26,19.26,0,0,1,922,11.13Zm.23,17.66h-.08a.43.43,0,0,0-.39.47l.08,6.4c0,.26.16.39.47.39h25.55a.34.34,0,0,0,.39-.39v-.78c0-.31-.13-.47-.39-.47H923.46V29.26a.43.43,0,0,0-.39-.47ZM935.1,12.46a12.21,12.21,0,0,0-5.7,1.33,5.26,5.26,0,0,0-3.13,4.76c0,1.93,1,3.41,3.05,4.46a10.85,10.85,0,0,0,5.31,1.25,10.93,10.93,0,0,1,4.14.62,2.4,2.4,0,0,1,.08,4.53,8.76,8.76,0,0,1-4.14.86,5.91,5.91,0,0,1-4-1.33,2.72,2.72,0,0,1-1.25-2,1.16,1.16,0,0,0-.63-1,2.23,2.23,0,0,0-1.33-.39,1.76,1.76,0,0,0-1.17.39,1.21,1.21,0,0,0-.55,1V31a3.59,3.59,0,0,0,.47,1.57,1.87,1.87,0,0,0,1.57.7,2.48,2.48,0,0,0,1.48-.31,1,1,0,0,0,.39-.63v-.23a13.42,13.42,0,0,0,5.47,1.17,11.15,11.15,0,0,0,6.48-1.72,4.89,4.89,0,0,0,2.58-4.37q0-3.67-3.75-5.24a16,16,0,0,0-5.86-.94,5.7,5.7,0,0,1-3.28-.85,1.94,1.94,0,0,1-1.09-1.57,2.82,2.82,0,0,1,1.21-2.11,5.44,5.44,0,0,1,3.55-1,6.63,6.63,0,0,1,3,.58,3.4,3.4,0,0,1,1.45,1.1,3.36,3.36,0,0,1,.35.9l.08.07a1.61,1.61,0,0,0,1.79,1.18,2.1,2.1,0,0,0,1.18-.32,1.2,1.2,0,0,0,.54-1V14.1a1.52,1.52,0,0,0-.62-1.09,2.14,2.14,0,0,0-1.33-.47,2,2,0,0,0-1.17.31,1.52,1.52,0,0,0-.55.47,11.34,11.34,0,0,0-1.56-.55A15.4,15.4,0,0,0,935.1,12.46Z" transform="translate(-1.03 -2.12)"/><path class="cls-1" d="M967.64,21.83a3.29,3.29,0,0,1,1.72.47,3.65,3.65,0,0,1,1.25,1.25,3.32,3.32,0,0,1,.47,1.72,3.48,3.48,0,0,1-3.44,3.44,3.16,3.16,0,0,1-2.38-1,3.48,3.48,0,0,1,0-4.84A3.16,3.16,0,0,1,967.64,21.83Zm7.42,3.44a9.43,9.43,0,0,0,4.22,8.13l-2.5,4.22a14.59,14.59,0,0,1-6.09-8.68,4.78,4.78,0,0,0,0-7.34,14.54,14.54,0,0,1,6.09-8.67l2.5,4.22A9.41,9.41,0,0,0,975.06,25.27ZM985,15.35a9.43,9.43,0,0,0-4.14.94L978.42,12A15.09,15.09,0,0,1,985,10.51a14.88,14.88,0,0,1,4,.54,4.6,4.6,0,0,0,2.34,3.32,4.54,4.54,0,0,0,4.07.35,14.18,14.18,0,0,1,4.37,9.61l-4.84.08a10.09,10.09,0,0,0-1.61-4.61,9.55,9.55,0,0,0-3.55-3.28A10,10,0,0,0,985,15.35Zm0,19.84a9.67,9.67,0,0,0,6.76-2.61,9.56,9.56,0,0,0,3.17-6.45l4.84.08a14.18,14.18,0,0,1-4.37,9.61A4.83,4.83,0,0,0,989,39.49a14.89,14.89,0,0,1-4,.55,15.1,15.1,0,0,1-6.56-1.49l2.42-4.29A9.56,9.56,0,0,0,985,35.19Zm9.57-21.64A3.06,3.06,0,0,1,992,13.2a3.39,3.39,0,0,1-1.21-4.65,3.19,3.19,0,0,1,2-1.6,3.36,3.36,0,0,1,2.58.35A3.24,3.24,0,0,1,997,9.37a3.46,3.46,0,0,1-2.43,4.18Zm-4.14,25.86A3.42,3.42,0,0,1,992,37.34a3.1,3.1,0,0,1,2.57-.35A3.46,3.46,0,0,1,997,41.17a3.24,3.24,0,0,1-1.6,2.07,3.32,3.32,0,0,1-2.58.35,3.16,3.16,0,0,1-2-1.6A3.36,3.36,0,0,1,990.41,39.41Z" transform="translate(-1.03 -2.12)"/><text x="-1.03" y="-2.12"/></svg>