<?xml version="1.0" encoding="utf-8"?>
<!-- Generator: Adobe Illustrator 23.1.0, SVG Export Plug-In . SVG Version: 6.00 Build 0)  -->
<svg version="1.1" id="Layer_1" xmlns="http://www.w3.org/2000/svg" xmlns:xlink="http://www.w3.org/1999/xlink" x="0px" y="0px"
	 viewBox="0 0 980 150" style="enable-background:new 0 0 980 150;" xml:space="preserve">
<style type="text/css">
	.st0{fill:#DC3232;}
	.st1{fill:#9D0006;}
	.st2{fill:#FB4934;}
	.st3{fill:#CC241D;}
	.st4{enable-background:new    ;}
	.st5{fill:#EB4B29;}
</style>
<polygon class="st0" points="399.8,0.8 399.8,39.5 511.8,117.2 511.8,79.6 "/>
<polygon class="st1" points="436.5,72.8 436.5,95.3 454.7,84.1 "/>
<polygon class="st2" points="399.8,47.8 431.2,69.7 431.2,150.8 399.8,150.8 "/>
<polygon class="st3" points="512.8,4.8 512.8,43.2 492,58 464.6,38.8 "/>
<polygon class="st1" points="518.4,0.8 518.4,149.9 549.8,150.1 549.8,0.8 "/>
<g class="st4">
	<path class="st0" d="M11.6,71.8v7.4c0,2.9-1.4,4.2-4.2,4.2c-1.5,0-3-0.5-3.9-1.3l0.6-0.9c0.8,0.7,2,1.2,3.3,1.2
		c2.1,0,3.1-1,3.1-3.1v-1.1c-0.7,1.1-1.9,1.6-3.3,1.6C4.8,79.7,3,78,3,75.6s1.8-4.1,4.2-4.1c1.4,0,2.6,0.6,3.3,1.7v-1.6L11.6,71.8
		L11.6,71.8z M10.5,75.8c0-1.8-1.3-3.1-3.2-3.1c-1.9,0-3.2,1.2-3.2,3.1c0,1.8,1.3,3.1,3.2,3.1S10.5,77.6,10.5,75.8z"/>
	<path class="st0" d="M14.5,69.1c0-0.4,0.4-0.8,0.8-0.8c0.5,0,0.8,0.4,0.8,0.8c0,0.5-0.4,0.8-0.8,0.8C14.9,70,14.5,69.6,14.5,69.1z
		 M14.8,71.8h1.1v8.4h-1.1V71.8z"/>
	<path class="st0" d="M23.5,79.7c-0.4,0.4-1.1,0.6-1.8,0.6c-1.6,0-2.5-0.9-2.5-2.4v-5.1h-1.5v-1h1.5v-1.8h1.1v1.8h2.6v1h-2.6v5
		c0,1,0.5,1.5,1.5,1.5c0.5,0,0.9-0.1,1.2-0.4L23.5,79.7z"/>
	<path class="st0" d="M33.3,75.2v4.9h-1.1v-4.8c0-1.8-0.9-2.7-2.5-2.7c-1.8,0-2.9,1.1-2.9,3v4.4h-1.2V68.2h1.1v4.9
		c0.6-1,1.7-1.5,3.2-1.5C31.9,71.7,33.3,72.8,33.3,75.2z"/>
	<path class="st0" d="M44,71.8v8.4h-1.1v-1.5c-0.6,1-1.7,1.6-3,1.6c-2.1,0-3.6-1.2-3.6-3.6v-4.9h1.1v4.8c0,1.8,0.9,2.7,2.5,2.7
		c1.8,0,2.9-1.1,2.9-3.1v-4.4H44z"/>
	<path class="st0" d="M55.7,76c0,2.5-1.8,4.3-4.2,4.3c-1.4,0-2.6-0.6-3.2-1.7v1.7h-1.1V68.4h1.1v5.1c0.7-1.1,1.9-1.7,3.2-1.7
		C53.9,71.7,55.7,73.5,55.7,76z M54.6,76c0-2-1.4-3.3-3.1-3.3c-1.8,0-3.1,1.3-3.1,3.3s1.3,3.3,3.1,3.3C53.2,79.2,54.6,78,54.6,76z"
		/>
	<path class="st0" d="M57.1,79.3c0-0.5,0.4-0.9,0.8-0.9c0.5,0,0.9,0.4,0.9,0.9s-0.4,0.9-0.9,0.9S57.1,79.8,57.1,79.3z"/>
	<path class="st0" d="M60.1,76c0-2.5,1.8-4.3,4.3-4.3c1.4,0,2.6,0.6,3.3,1.7l-0.8,0.6c-0.6-0.8-1.5-1.2-2.4-1.2
		c-1.8,0-3.2,1.3-3.2,3.3s1.3,3.3,3.2,3.3c1,0,1.9-0.4,2.4-1.2l0.8,0.6c-0.7,1.1-1.9,1.7-3.3,1.7C61.9,80.2,60.1,78.5,60.1,76z"/>
	<path class="st0" d="M69,76c0-2.5,1.8-4.3,4.3-4.3s4.3,1.8,4.3,4.3s-1.8,4.3-4.3,4.3C70.8,80.2,69,78.5,69,76z M76.4,76
		c0-2-1.3-3.3-3.1-3.3c-1.8,0-3.1,1.3-3.1,3.3s1.3,3.3,3.1,3.3C75.1,79.2,76.4,78,76.4,76z"/>
	<path class="st0" d="M93.7,75.2v4.9h-1.1v-4.8c0-1.8-0.9-2.7-2.4-2.7c-1.7,0-2.8,1.1-2.8,3v4.4h-1.1v-4.8c0-1.8-0.9-2.7-2.4-2.7
		c-1.7,0-2.8,1.1-2.8,3V80H80v-8.4h1.1v1.5c0.6-1,1.7-1.6,3.1-1.6s2.5,0.6,3,1.8c0.6-1.1,1.8-1.8,3.3-1.8
		C92.4,71.7,93.7,72.8,93.7,75.2z"/>
	<path class="st0" d="M100.1,66.7h1l-5.3,15.1h-1L100.1,66.7z"/>
	<path class="st0" d="M115,75.2v4.9h-1.1v-4.8c0-1.8-0.9-2.7-2.4-2.7c-1.7,0-2.8,1.1-2.8,3v4.4h-1.1v-4.8c0-1.8-0.9-2.7-2.4-2.7
		c-1.7,0-2.8,1.1-2.8,3V80h-1.1v-8.4h1.1v1.5c0.6-1,1.7-1.6,3.1-1.6s2.5,0.6,3,1.8c0.6-1.1,1.8-1.8,3.3-1.8
		C113.6,71.7,115,72.8,115,75.2z"/>
	<path class="st0" d="M124.4,75v5.2h-1.1v-1.3c-0.5,0.9-1.5,1.4-2.9,1.4c-1.9,0-3.1-1-3.1-2.4c0-1.3,0.8-2.4,3.2-2.4h2.7v-0.5
		c0-1.4-0.8-2.2-2.4-2.2c-1.1,0-2.1,0.4-2.8,1l-0.5-0.8c0.8-0.7,2.1-1.1,3.4-1.1C123.2,71.7,124.4,72.8,124.4,75z M123.3,77.7v-1.4
		h-2.7c-1.6,0-2.2,0.6-2.2,1.5c0,1,0.8,1.6,2.1,1.6C121.9,79.3,122.8,78.8,123.3,77.7z"/>
	<path class="st0" d="M130.6,76l-2,1.8v2.4h-1.1V68.3h1.1v8.1l5-4.6h1.4l-3.6,3.4l3.9,5h-1.4L130.6,76z"/>
	<path class="st0" d="M135.9,76c0-2.5,1.8-4.3,4.3-4.3c1.4,0,2.6,0.6,3.3,1.7l-0.8,0.6c-0.6-0.8-1.5-1.2-2.4-1.2
		c-1.8,0-3.2,1.3-3.2,3.3s1.3,3.3,3.2,3.3c1,0,1.9-0.4,2.4-1.2l0.8,0.6c-0.7,1.1-1.9,1.7-3.3,1.7C137.8,80.2,135.9,78.5,135.9,76z"
		/>
	<path class="st0" d="M144.8,76c0-2.5,1.8-4.3,4.3-4.3c1.4,0,2.6,0.6,3.3,1.7l-0.8,0.6c-0.6-0.8-1.5-1.2-2.4-1.2
		c-1.8,0-3.2,1.3-3.2,3.3s1.3,3.3,3.2,3.3c1,0,1.9-0.4,2.4-1.2l0.8,0.6c-0.7,1.1-1.9,1.7-3.3,1.7C146.6,80.2,144.8,78.5,144.8,76z"
		/>
	<path class="st0" d="M158.9,71.7v1.1c-0.1,0-0.2,0-0.3,0c-1.8,0-2.8,1.1-2.8,3.1v4.3h-1.1v-8.4h1.1v1.6
		C156.3,72.2,157.4,71.7,158.9,71.7z"/>
</g>
<g class="st4">
	<path class="st0" d="M650.4,78.2v4.9h-1.1v-4.8c0-1.8-0.9-2.7-2.4-2.7c-1.7,0-2.8,1.1-2.8,3V83H643v-4.8c0-1.8-0.9-2.7-2.4-2.7
		c-1.7,0-2.8,1.1-2.8,3v4.4h-1.1v-8.4h1.1V76c0.6-1,1.7-1.6,3.1-1.6c1.4,0,2.5,0.6,3,1.8c0.6-1.1,1.8-1.8,3.3-1.8
		C649.1,74.6,650.4,75.8,650.4,78.2z"/>
	<path class="st0" d="M659.8,77.9v5.2h-1.1v-1.3c-0.5,0.9-1.5,1.4-2.9,1.4c-1.9,0-3.1-1-3.1-2.4c0-1.3,0.8-2.4,3.2-2.4h2.7v-0.5
		c0-1.4-0.8-2.2-2.4-2.2c-1.1,0-2.1,0.4-2.8,1l-0.5-0.8c0.8-0.7,2.1-1.1,3.4-1.1C658.6,74.6,659.8,75.7,659.8,77.9z M658.7,80.6
		v-1.4h-2.6c-1.6,0-2.2,0.6-2.2,1.5c0,1,0.8,1.6,2.1,1.6S658.3,81.7,658.7,80.6z"/>
	<path class="st0" d="M666,78.9l-2,1.8v2.4h-1.1V71.2h1.1v8.1l5-4.6h1.4l-3.6,3.4l3.9,5h-1.4L666,78.9z"/>
	<path class="st0" d="M671.4,78.9c0-2.5,1.8-4.3,4.3-4.3c1.4,0,2.6,0.6,3.3,1.7l-0.8,0.6c-0.6-0.8-1.5-1.2-2.4-1.2
		c-1.8,0-3.2,1.3-3.2,3.3s1.3,3.3,3.2,3.3c1,0,1.9-0.4,2.4-1.2l0.8,0.6c-0.7,1.1-1.9,1.7-3.3,1.7C673.2,83.2,671.4,81.4,671.4,78.9z
		"/>
	<path class="st0" d="M680.8,82.3c0-0.5,0.4-0.9,0.8-0.9c0.5,0,0.9,0.4,0.9,0.9s-0.4,0.9-0.9,0.9C681.2,83.2,680.8,82.8,680.8,82.3z
		"/>
	<path class="st0" d="M683.8,78.9c0-2.5,1.8-4.3,4.3-4.3c1.4,0,2.6,0.6,3.3,1.7l-0.8,0.6c-0.6-0.8-1.5-1.2-2.4-1.2
		c-1.8,0-3.2,1.3-3.2,3.3s1.3,3.3,3.2,3.3c1,0,1.9-0.4,2.4-1.2l0.8,0.6c-0.7,1.1-1.9,1.7-3.3,1.7C685.7,83.2,683.8,81.4,683.8,78.9z
		"/>
	<path class="st0" d="M692.7,78.9c0-2.5,1.8-4.3,4.3-4.3s4.3,1.8,4.3,4.3s-1.8,4.3-4.3,4.3C694.5,83.2,692.7,81.4,692.7,78.9z
		 M700.1,78.9c0-2-1.3-3.3-3.1-3.3s-3.1,1.3-3.1,3.3s1.3,3.3,3.1,3.3C698.8,82.2,700.1,80.9,700.1,78.9z"/>
</g>
<g class="st4">
	<path class="st5" d="M747.4,71.2h3.3v15h-3.3V71.2z"/>
</g>
<g class="st4">
	<path class="st0" d="M802.7,74.2l-4.2,9.4c-0.7,1.6-1.6,2.2-2.8,2.2c-0.8,0-1.5-0.3-2-0.8l0.5-0.8c0.4,0.4,0.9,0.6,1.5,0.6
		c0.8,0,1.3-0.4,1.7-1.4l0.4-0.8l-3.8-8.4h1.2l3.2,7.2l3.2-7.2L802.7,74.2L802.7,74.2z"/>
	<path class="st0" d="M803.2,78.4c0-2.5,1.8-4.3,4.3-4.3s4.3,1.8,4.3,4.3s-1.8,4.3-4.3,4.3C805,82.7,803.2,80.9,803.2,78.4z
		 M810.6,78.4c0-2-1.3-3.3-3.1-3.3s-3.1,1.3-3.1,3.3s1.3,3.3,3.1,3.3C809.3,81.7,810.6,80.4,810.6,78.4z"/>
	<path class="st0" d="M821.7,74.2v8.4h-1.1v-1.5c-0.6,1-1.7,1.6-3,1.6c-2.1,0-3.6-1.2-3.6-3.6v-4.9h1.1V79c0,1.8,0.9,2.7,2.5,2.7
		c1.8,0,2.9-1.1,2.9-3.1v-4.4H821.7z"/>
	<path class="st0" d="M829.3,82.1c-0.4,0.4-1.1,0.6-1.8,0.6c-1.6,0-2.5-0.9-2.5-2.4v-5.1h-1.5v-1h1.5v-1.8h1.1v1.8h2.6v1h-2.6v5
		c0,1,0.5,1.5,1.5,1.5c0.5,0,0.9-0.1,1.2-0.4L829.3,82.1z"/>
	<path class="st0" d="M838.9,74.2v8.4h-1.1v-1.5c-0.6,1-1.7,1.6-3,1.6c-2.1,0-3.6-1.2-3.6-3.6v-4.9h1.1V79c0,1.8,0.9,2.7,2.5,2.7
		c1.8,0,2.9-1.1,2.9-3.1v-4.4H838.9z"/>
	<path class="st0" d="M850.6,78.4c0,2.5-1.8,4.3-4.2,4.3c-1.4,0-2.6-0.6-3.2-1.7v1.7h-1.1V70.8h1.1v5.1c0.7-1.1,1.9-1.7,3.2-1.7
		C848.8,74.1,850.6,75.9,850.6,78.4z M849.5,78.4c0-2-1.4-3.3-3.1-3.3c-1.8,0-3.1,1.3-3.1,3.3s1.3,3.3,3.1,3.3
		C848.1,81.7,849.5,80.4,849.5,78.4z"/>
	<path class="st0" d="M860.3,78.8h-7c0.1,1.8,1.5,2.9,3.3,2.9c1,0,1.9-0.4,2.6-1.1l0.6,0.7c-0.8,0.9-1.9,1.4-3.2,1.4
		c-2.6,0-4.4-1.8-4.4-4.3s1.7-4.3,4.1-4.3s4.1,1.7,4.1,4.3C860.3,78.5,860.3,78.6,860.3,78.8z M853.2,77.9h6c-0.1-1.6-1.3-2.8-3-2.8
		C854.6,75.1,853.4,76.3,853.2,77.9z"/>
	<path class="st0" d="M861.9,81.8c0-0.5,0.4-0.9,0.8-0.9s0.9,0.4,0.9,0.9s-0.4,0.9-0.9,0.9S861.9,82.3,861.9,81.8z"/>
	<path class="st0" d="M864.9,78.4c0-2.5,1.8-4.3,4.3-4.3c1.4,0,2.6,0.6,3.3,1.7l-0.8,0.6c-0.6-0.8-1.5-1.2-2.4-1.2
		c-1.8,0-3.2,1.3-3.2,3.3s1.3,3.3,3.2,3.3c1,0,1.9-0.4,2.4-1.2l0.8,0.6c-0.7,1.1-1.9,1.7-3.3,1.7C866.7,82.7,864.9,80.9,864.9,78.4z
		"/>
	<path class="st0" d="M873.8,78.4c0-2.5,1.8-4.3,4.3-4.3s4.3,1.8,4.3,4.3s-1.8,4.3-4.3,4.3S873.8,80.9,873.8,78.4z M881.2,78.4
		c0-2-1.3-3.3-3.1-3.3s-3.1,1.3-3.1,3.3s1.3,3.3,3.1,3.3S881.2,80.4,881.2,78.4z"/>
	<path class="st0" d="M898.6,77.7v4.9h-1.1v-4.8c0-1.8-0.9-2.7-2.4-2.7c-1.7,0-2.8,1.1-2.8,3v4.4h-1.1v-4.8c0-1.8-0.9-2.7-2.4-2.7
		c-1.7,0-2.8,1.1-2.8,3v4.4h-1.1V74h1.1v1.5c0.6-1,1.7-1.6,3.1-1.6c1.4,0,2.5,0.6,3,1.8c0.6-1.1,1.8-1.8,3.3-1.8
		C897.2,74.1,898.6,75.3,898.6,77.7z"/>
	<path class="st0" d="M904.9,69.1h1l-5.3,15.1h-1L904.9,69.1z"/>
	<path class="st0" d="M905.1,78.4c0-2.5,1.8-4.3,4.3-4.3c1.4,0,2.6,0.6,3.3,1.7l-0.8,0.6c-0.6-0.8-1.5-1.2-2.4-1.2
		c-1.8,0-3.2,1.3-3.2,3.3s1.3,3.3,3.2,3.3c1,0,1.9-0.4,2.4-1.2l0.8,0.6c-0.7,1.1-1.9,1.7-3.3,1.7C906.9,82.7,905.1,80.9,905.1,78.4z
		"/>
	<path class="st0" d="M918.2,69.1h1l-5.3,15.1h-1L918.2,69.1z"/>
	<path class="st0" d="M933.1,77.7v4.9H932v-4.8c0-1.8-0.9-2.7-2.4-2.7c-1.7,0-2.8,1.1-2.8,3v4.4h-1.1v-4.8c0-1.8-0.9-2.7-2.4-2.7
		c-1.7,0-2.8,1.1-2.8,3v4.4h-1.1V74h1.1v1.5c0.6-1,1.7-1.6,3.1-1.6c1.4,0,2.5,0.6,3,1.8c0.6-1.1,1.8-1.8,3.3-1.8
		C931.7,74.1,933.1,75.3,933.1,77.7z"/>
	<path class="st0" d="M942.5,77.4v5.2h-1.1v-1.3c-0.5,0.9-1.5,1.4-2.9,1.4c-1.9,0-3.1-1-3.1-2.4c0-1.3,0.8-2.4,3.2-2.4h2.7v-0.5
		c0-1.4-0.8-2.2-2.4-2.2c-1.1,0-2.1,0.4-2.8,1l-0.5-0.8c0.8-0.7,2.1-1.1,3.4-1.1C941.3,74.1,942.5,75.2,942.5,77.4z M941.4,80.1
		v-1.4h-2.6c-1.6,0-2.2,0.6-2.2,1.5c0,1,0.8,1.6,2.1,1.6S940.9,81.2,941.4,80.1z"/>
	<path class="st0" d="M948.7,78.4l-2,1.8v2.4h-1.1V70.7h1.1v8.1l5-4.6h1.4l-3.6,3.4l3.9,5H952L948.7,78.4z"/>
	<path class="st0" d="M954,78.4c0-2.5,1.8-4.3,4.3-4.3c1.4,0,2.6,0.6,3.3,1.7l-0.8,0.6c-0.6-0.8-1.5-1.2-2.4-1.2
		c-1.8,0-3.2,1.3-3.2,3.3s1.3,3.3,3.2,3.3c1,0,1.9-0.4,2.4-1.2l0.8,0.6c-0.7,1.1-1.9,1.7-3.3,1.7C955.9,82.7,954,80.9,954,78.4z"/>
	<path class="st0" d="M962.9,78.4c0-2.5,1.8-4.3,4.3-4.3c1.4,0,2.6,0.6,3.3,1.7l-0.8,0.6c-0.6-0.8-1.5-1.2-2.4-1.2
		c-1.8,0-3.2,1.3-3.2,3.3s1.3,3.3,3.2,3.3c1,0,1.9-0.4,2.4-1.2l0.8,0.6c-0.7,1.1-1.9,1.7-3.3,1.7C964.7,82.7,962.9,80.9,962.9,78.4z
		"/>
	<path class="st0" d="M977,74.1v1.1c-0.1,0-0.2,0-0.3,0c-1.8,0-2.8,1.1-2.8,3.1v4.3h-1.1v-8.4h1.1v1.6
		C974.4,74.7,975.4,74.1,977,74.1z"/>
</g>
<g>
	<path class="st0" d="M247.2,75.2v4.9H246v-4.8c0-1.8-0.9-2.7-2.4-2.7c-1.7,0-2.8,1.1-2.8,3v4.4h-1.1v-4.8c0-1.8-0.9-2.7-2.4-2.7
		c-1.7,0-2.8,1.1-2.8,3v4.4h-1.1v-8.4h1.1v1.5c0.6-1,1.7-1.6,3.1-1.6c1.4,0,2.5,0.6,3,1.8c0.6-1.1,1.8-1.8,3.3-1.8
		C245.8,71.6,247.2,72.8,247.2,75.2z"/>
	<path class="st0" d="M264.4,75.9c0,2.7-1,4.3-2.7,4.3c-1,0-1.7-0.6-1.8-1.7c-0.6,1.1-1.8,1.7-3.2,1.7c-2.3,0-4-1.7-4-4.1
		c0-2.4,1.7-4.1,4-4.1c1.4,0,2.5,0.6,3.2,1.7V72h1v6.1c0,0.9,0.4,1.2,1,1.2c1,0,1.6-1.2,1.6-3.4c0-3.8-2.7-6.3-6.6-6.3
		c-3.9,0-6.6,2.6-6.6,6.4c0,3.8,2.6,6.5,6.5,6.5c1,0,2.1-0.2,3.1-0.7l0.3,0.8c-1,0.5-2.3,0.7-3.3,0.7c-4.4,0-7.4-3-7.4-7.3
		c0-4.3,3.1-7.2,7.5-7.2C261.3,68.8,264.4,71.7,264.4,75.9z M259.9,76c0-1.9-1.3-3.2-3-3.2c-1.8,0-3.1,1.3-3.1,3.2
		c0,1.9,1.3,3.2,3.1,3.2C258.6,79.3,259.9,78,259.9,76z"/>
	<path class="st0" d="M280.7,75.2v4.9h-1.1v-4.8c0-1.8-0.9-2.7-2.4-2.7c-1.7,0-2.8,1.1-2.8,3v4.4h-1.1v-4.8c0-1.8-0.9-2.7-2.4-2.7
		c-1.7,0-2.8,1.1-2.8,3v4.4h-1.1v-8.4h1.1v1.5c0.6-1,1.7-1.6,3.1-1.6c1.4,0,2.5,0.6,3,1.8c0.6-1.1,1.8-1.8,3.3-1.8
		C279.3,71.6,280.7,72.8,280.7,75.2z"/>
	<path class="st0" d="M290.1,74.9v5.2H289v-1.3c-0.5,0.9-1.5,1.4-2.9,1.4c-1.9,0-3.1-1-3.1-2.4c0-1.3,0.8-2.4,3.2-2.4h2.7v-0.5
		c0-1.4-0.8-2.2-2.4-2.2c-1.1,0-2.1,0.4-2.8,1l-0.5-0.8c0.8-0.7,2.1-1.1,3.4-1.1C288.9,71.6,290.1,72.7,290.1,74.9z M289,77.6v-1.4
		h-2.6c-1.6,0-2.2,0.6-2.2,1.5c0,1,0.8,1.6,2.1,1.6C287.6,79.3,288.5,78.7,289,77.6z"/>
	<path class="st0" d="M296.3,75.9l-2,1.8v2.4h-1.1V68.2h1.1v8.1l5-4.6h1.4l-3.6,3.4l3.9,5h-1.4L296.3,75.9z"/>
	<path class="st0" d="M301.6,75.9c0-2.5,1.8-4.3,4.3-4.3c1.4,0,2.6,0.6,3.3,1.7l-0.8,0.6c-0.6-0.8-1.5-1.2-2.4-1.2
		c-1.8,0-3.2,1.3-3.2,3.3c0,2,1.3,3.3,3.2,3.3c1,0,1.9-0.4,2.4-1.2l0.8,0.6c-0.7,1.1-1.9,1.7-3.3,1.7
		C303.5,80.2,301.6,78.4,301.6,75.9z"/>
	<path class="st0" d="M311.1,79.3c0-0.5,0.4-0.9,0.8-0.9c0.5,0,0.9,0.4,0.9,0.9c0,0.5-0.4,0.9-0.9,0.9
		C311.5,80.2,311.1,79.8,311.1,79.3z"/>
	<path class="st0" d="M314.1,75.9c0-2.5,1.8-4.3,4.3-4.3c1.4,0,2.6,0.6,3.3,1.7l-0.8,0.6c-0.6-0.8-1.5-1.2-2.4-1.2
		c-1.8,0-3.2,1.3-3.2,3.3c0,2,1.3,3.3,3.2,3.3c1,0,1.9-0.4,2.4-1.2l0.8,0.6c-0.7,1.1-1.9,1.7-3.3,1.7
		C315.9,80.2,314.1,78.4,314.1,75.9z"/>
	<path class="st0" d="M323,75.9c0-2.5,1.8-4.3,4.3-4.3c2.5,0,4.3,1.8,4.3,4.3s-1.8,4.3-4.3,4.3C324.8,80.2,323,78.4,323,75.9z
		 M330.4,75.9c0-2-1.3-3.3-3.1-3.3c-1.8,0-3.1,1.3-3.1,3.3c0,2,1.3,3.3,3.1,3.3C329.1,79.2,330.4,77.9,330.4,75.9z"/>
</g>
<g class="st4">
	<path class="st5" d="M193.4,69.5h3.3v15h-3.3V69.5z"/>
</g>
</svg>
