<?xml version="1.0" encoding="utf-8"?>
<!-- Generator: Adobe Illustrator 26.1.0, SVG Export Plug-In . SVG Version: 6.00 Build 0)  -->
<svg version="1.1"
	 id="Layer_1" xmlns:cc="http://creativecommons.org/ns#" xmlns:dc="http://purl.org/dc/elements/1.1/" xmlns:inkscape="http://www.inkscape.org/namespaces/inkscape" xmlns:rdf="http://www.w3.org/1999/02/22-rdf-syntax-ns#" xmlns:sodipodi="http://sodipodi.sourceforge.net/DTD/sodipodi-0.dtd" xmlns:svg="http://www.w3.org/2000/svg"
	 xmlns="http://www.w3.org/2000/svg" xmlns:xlink="http://www.w3.org/1999/xlink" x="0px" y="0px" viewBox="0 0 550 150"
	 style="enable-background:new 0 0 550 150;" xml:space="preserve">
<style type="text/css">
	.st0{fill:#939598;}
	.st1{fill:#C92727;}
	.st2{clip-path:url(#SVGID_00000028314074051516295200000007076188674481870746_);fill:#DC3332;}
	.st3{clip-path:url(#SVGID_00000028314074051516295200000007076188674481870746_);fill:#F04C38;}
	.st4{fill:#CC2527;}
	.st5{fill:#9D1C20;}
	.st6{fill:#971B1E;}
</style>
<g>
	<path class="st0" d="M72.6,66.8V92h-5.9V67.5c0-9.1-4.7-13.9-12.5-13.9c-8.9,0-14.5,5.8-14.5,15.7V92h-5.9V67.4
		c0-9.1-4.7-13.8-12.6-13.8c-8.8,0-14.5,5.8-14.5,15.7V92H0.8V48.6h5.6v7.9c3.1-5.2,8.7-8.3,15.9-8.3s12.8,3.1,15.5,9.1
		c3.2-5.6,9.3-9.1,17.2-9.1C65.6,48.3,72.6,54.4,72.6,66.8z"/>
	<path class="st0" d="M121.3,65.1V92h-5.6v-6.8c-2.6,4.5-7.7,7.2-15,7.2c-9.9,0-15.8-5.1-15.8-12.7c0-6.7,4.3-12.3,16.8-12.3h13.8
		v-2.6c0-7.5-4.2-11.5-12.3-11.5c-5.6,0-10.9,2-14.4,5.1L86.1,54c4.4-3.7,10.8-5.9,17.7-5.9C115,48.3,121.3,53.9,121.3,65.1z
		 M115.5,79v-7.1h-13.6c-8.4,0-11.2,3.3-11.2,7.7c0,5,4,8.2,11,8.2C108.3,87.9,113.1,84.7,115.5,79z"/>
	<path class="st0" d="M153.4,70.3l-10.3,9.4v12.4h-5.8V30.7h5.9v41.6l25.9-23.7h7.3l-18.6,17.8L178.2,92H171L153.4,70.3z"/>
	<path class="st0" d="M180.8,70.4c0-13,9.4-22.1,22.4-22.1c7.4,0,13.5,2.9,17.1,8.6l-4.4,3c-3-4.4-7.6-6.4-12.7-6.4
		c-9.5,0-16.4,6.8-16.4,17c0,10.3,6.9,17,16.4,17c5,0,9.7-2,12.7-6.3l4.4,3c-3.4,5.6-9.7,8.6-17.1,8.6
		C190.2,92.5,180.8,83.3,180.8,70.4z"/>
	<path class="st1" d="M229.6,88c0-2.6,2-4.5,4.4-4.5s4.5,1.9,4.5,4.5s-2,4.6-4.5,4.6C231.6,92.5,229.6,90.5,229.6,88z"/>
	<path class="st0" d="M245.3,70.4c0-13,9.4-22.1,22.4-22.1c7.4,0,13.5,2.9,17.1,8.6l-4.4,3c-3-4.4-7.6-6.4-12.7-6.4
		c-9.5,0-16.4,6.8-16.4,17c0,10.3,6.9,17,16.4,17c5,0,9.7-2,12.7-6.3l4.4,3c-3.4,5.6-9.7,8.6-17.1,8.6
		C254.8,92.5,245.3,83.3,245.3,70.4z"/>
	<path class="st0" d="M291.1,70.4c0-12.9,9.4-22.1,22.2-22.1c12.8,0,22.1,9.1,22.1,22.1s-9.3,22.2-22.1,22.2
		C300.5,92.5,291.1,83.2,291.1,70.4z M329.4,70.4c0-10.2-6.9-17-16.1-17s-16.2,6.8-16.2,17s6.9,16.9,16.2,16.9
		S329.4,80.5,329.4,70.4z"/>
</g>
<g>
	<path class="st0" d="M42,117.5v2H30.4v-16h11.3v2h-9v4.9h8v1.9h-8v5.2H42L42,117.5z"/>
	<path class="st0" d="M67.1,117.6l0.9-1.8c1.2,1.1,3.3,1.8,5.3,1.8c2.7,0,4-1.1,4-2.5c0-3.9-9.7-1.4-9.7-7.4c0-2.5,1.9-4.6,6.2-4.6
		c1.8,0,3.8,0.5,5.2,1.4l-0.8,1.8c-1.4-0.9-3-1.3-4.4-1.3c-2.7,0-3.9,1.1-3.9,2.6c0,3.9,9.7,1.5,9.7,7.3c0,2.5-1.9,4.6-6.2,4.6
		C70.8,119.6,68.4,118.8,67.1,117.6z"/>
	<path class="st0" d="M108.6,105.5h-5.5v-2h13.3v2H111v14h-2.3L108.6,105.5L108.6,105.5z"/>
	<path class="st1" d="M139.7,118c0-0.9,0.7-1.6,1.6-1.6c0.8,0,1.5,0.6,1.5,1.6s-0.7,1.6-1.5,1.6C140.4,119.6,139.7,118.9,139.7,118z
		"/>
	<path class="st0" d="M179.2,117.5v2h-11.5v-1.6l6.5-6.3c1.7-1.7,2-2.6,2-3.7c0-1.7-1.1-2.6-3.4-2.6c-1.8,0-3.1,0.5-4.1,1.8
		l-1.5-1.3c1.2-1.5,3.3-2.5,5.9-2.5c3.3,0,5.5,1.7,5.5,4.5c0,1.6-0.4,3-2.6,5l-4.9,4.7C171,117.5,179.2,117.5,179.2,117.5z"/>
	<path class="st0" d="M203.9,111.4c0-5.2,2.8-8.2,6.5-8.2s6.5,3,6.5,8.2s-2.8,8.2-6.5,8.2S203.9,116.6,203.9,111.4z M214.7,111.4
		c0-4.1-1.8-6.2-4.2-6.2c-2.6,0-4.2,2-4.2,6.2c0,4.1,1.8,6.2,4.2,6.2S214.7,115.6,214.7,111.4z"/>
	<path class="st0" d="M246.9,103.4v16h-2.3v-14H241v-2H246.9z"/>
	<path class="st0" d="M284.5,117.5v2H273v-1.6l6.5-6.3c1.7-1.7,2-2.6,2-3.7c0-1.7-1.1-2.6-3.4-2.6c-1.8,0-3.1,0.5-4.1,1.8l-1.6-1.3
		c1.2-1.5,3.3-2.5,5.9-2.5c3.3,0,5.5,1.7,5.5,4.5c0,1.6-0.4,3-2.6,5l-4.9,4.7H284.5z"/>
</g>
<g>
	<g>
		<defs>
			<rect id="SVGID_1_" x="399.4" y="0" width="150.6" height="150"/>
		</defs>
		<clipPath id="SVGID_00000057850968674422742660000004185597418607807894_">
			<use xlink:href="#SVGID_1_"  style="overflow:visible;"/>
		</clipPath>
		<path style="clip-path:url(#SVGID_00000057850968674422742660000004185597418607807894_);fill:#DC3332;" d="M399.4,30v0.8
			c0,5.1,2.5,9.9,6.7,12.8l81.7,56.5c10.4,7.2,24.5-0.2,24.5-12.8l0,0c0-5.1-2.5-9.8-6.6-12.7L424,17.2
			C413.7,10,399.4,17.4,399.4,30L399.4,30z"/>
		<path style="clip-path:url(#SVGID_00000057850968674422742660000004185597418607807894_);fill:#F04C38;" d="M424.2,63.9
			L424.2,63.9c4.2,2.9,6.8,7.8,6.8,12.9v57.5c0,8.7-7.1,15.7-15.8,15.7h0c-8.7,0-15.8-7-15.8-15.7V76.8
			C399.4,64.1,413.7,56.6,424.2,63.9L424.2,63.9z"/>
	</g>
	<path class="st4" d="M513.2,34.1L513.2,34.1c0,5.1-2.5,9.9-6.7,12.9l-5.2,3.7c-5.5,3.9-12.8,3.9-18.3,0.1l0,0
		c-9-6.3-9.1-19.6,0-25.9l5.2-3.6C498.7,13.7,513.2,21.2,513.2,34.1L513.2,34.1z"/>
	<g>
		<path class="st5" d="M436.6,84.2L436.6,84.2c0,4.8,5.4,7.6,9.4,4.9l0,0c3.4-2.4,3.4-7.4,0-9.8l0,0C442,76.6,436.6,79.4,436.6,84.2
			L436.6,84.2z"/>
		<path class="st6" d="M518.4,15.7v118.5c0,8.7,7.1,15.7,15.8,15.7l0,0c8.7,0,15.8-7,15.8-15.7l0-118.5C550,7,542.9,0,534.2,0h0
			C525.5,0,518.4,7,518.4,15.7L518.4,15.7z"/>
	</g>
</g>
</svg>
