<?xml version="1.0" encoding="UTF-8" standalone="no"?>
<svg
   xmlns:dc="http://purl.org/dc/elements/1.1/"
   xmlns:cc="http://creativecommons.org/ns#"
   xmlns:rdf="http://www.w3.org/1999/02/22-rdf-syntax-ns#"
   xmlns:svg="http://www.w3.org/2000/svg"
   xmlns="http://www.w3.org/2000/svg"
   xmlns:sodipodi="http://sodipodi.sourceforge.net/DTD/sodipodi-0.dtd"
   xmlns:inkscape="http://www.inkscape.org/namespaces/inkscape"
   version="1.1"
   id="Layer_1"
   x="0px"
   y="0px"
   viewBox="0 0 550 150"
   xml:space="preserve"
   sodipodi:docname="github-header.svg"
   inkscape:version="1.0.2 (e86c870, 2021-01-15)"
   width="550"
   height="150"><metadata
   id="metadata254"><rdf:RDF><cc:Work
       rdf:about=""><dc:format>image/svg+xml</dc:format><dc:type
         rdf:resource="http://purl.org/dc/dcmitype/StillImage" /><dc:title></dc:title></cc:Work></rdf:RDF></metadata><defs
   id="defs252" /><sodipodi:namedview
   pagecolor="#ffffff"
   bordercolor="#666666"
   borderopacity="1"
   objecttolerance="10"
   gridtolerance="10"
   guidetolerance="10"
   inkscape:pageopacity="0"
   inkscape:pageshadow="2"
   inkscape:window-width="1880"
   inkscape:window-height="1010"
   id="namedview250"
   showgrid="false"
   inkscape:zoom="1.7877551"
   inkscape:cx="274.08724"
   inkscape:cy="47.313548"
   inkscape:window-x="1940"
   inkscape:window-y="50"
   inkscape:window-maximized="0"
   inkscape:current-layer="Layer_1"
   inkscape:document-rotation="0" />
<style
   type="text/css"
   id="style159">
	.st0{fill:#DC3232;}
	.st1{fill:#9D0006;}
	.st2{fill:#FB4934;}
	.st3{fill:#CC241D;}
	.st4{enable-background:new    ;}
</style>
<polygon
   class="st0"
   points="112.5,116.4 112.5,78.8 0.5,0 0.5,38.7 "
   id="polygon161"
   transform="translate(400)" />
<polygon
   class="st1"
   points="55.4,83.3 37.2,72 37.2,94.5 "
   id="polygon163"
   transform="translate(400)" />
<polygon
   class="st2"
   points="31.9,150 0.5,150 0.5,47 31.9,68.9 "
   id="polygon165"
   transform="translate(400)" />
<polygon
   class="st3"
   points="92.7,57.2 65.3,38 113.5,4 113.5,42.4 "
   id="polygon167"
   transform="translate(400)" />
<polygon
   class="st1"
   points="150.5,150.3 150.5,1 119.1,1 119.1,150.1 "
   id="polygon169"
   transform="translate(400)" />


<g
   class="st4"
   id="g229"
   transform="matrix(2.18211,0,0,2.18211,-1097.6588,-139.88321)">
	<path
   class="st2"
   d="m 512.7,97.1 v 8 c 0,2.9 -1.4,4.2 -4.2,4.2 -1.6,0 -3.1,-0.5 -4,-1.4 l 0.3,-0.4 c 0.9,0.9 2.2,1.3 3.6,1.3 2.5,0 3.6,-1.1 3.6,-3.6 v -1.9 c -0.7,1.4 -2.1,2.3 -3.8,2.3 -2.5,0 -4.4,-1.8 -4.4,-4.3 0,-2.5 1.9,-4.3 4.4,-4.3 1.8,0 3.2,0.9 3.9,2.4 v -2.3 z m -0.6,4.2 c 0,-2.2 -1.6,-3.8 -3.8,-3.8 -2.2,0 -3.8,1.5 -3.8,3.8 0,2.3 1.6,3.8 3.8,3.8 2.2,0 3.8,-1.6 3.8,-3.8 z"
   id="path209" />
	<path
   class="st2"
   d="m 516.1,94.2 c 0,-0.3 0.3,-0.6 0.6,-0.6 0.3,0 0.6,0.3 0.6,0.5 0,0.3 -0.3,0.6 -0.6,0.6 -0.3,0 -0.6,-0.2 -0.6,-0.5 z m 0.3,2.9 h 0.6 v 8.8 h -0.6 z"
   id="path211" />
	<path
   class="st2"
   d="m 524.9,105.3 c -0.4,0.4 -1.1,0.6 -1.8,0.6 -1.5,0 -2.2,-0.9 -2.2,-2.3 v -6.1 h -1.7 V 97 h 1.7 v -1.9 h 0.6 V 97 h 2.9 v 0.5 h -2.9 v 6 c 0,1.2 0.6,1.9 1.7,1.9 0.5,0 1.1,-0.2 1.4,-0.5 z"
   id="path213" />
	<path
   class="st2"
   d="m 535.1,100.7 v 5.2 h -0.6 v -5.2 c 0,-2.1 -1.1,-3.2 -3,-3.2 -2.2,0 -3.6,1.4 -3.6,3.6 v 4.8 h -0.6 V 93.3 h 0.6 v 5.9 c 0.6,-1.3 1.8,-2.2 3.6,-2.2 2.3,0 3.6,1.3 3.6,3.7 z"
   id="path215" />
	<path
   class="st2"
   d="m 546.4,97.1 v 8.8 h -0.5 v -2.1 c -0.5,1.4 -1.8,2.2 -3.5,2.2 -2.2,0 -3.7,-1.3 -3.7,-3.7 v -5.2 h 0.6 v 5.2 c 0,2.1 1.1,3.2 3.1,3.2 2.1,0 3.4,-1.4 3.4,-3.6 v -4.8 z"
   id="path217" />
	<path
   class="st2"
   d="m 558.8,101.5 c 0,2.6 -1.9,4.5 -4.3,4.5 -1.7,0 -3.1,-0.9 -3.8,-2.5 v 2.4 h -0.5 V 93.3 h 0.6 v 6.2 c 0.7,-1.5 2.1,-2.4 3.8,-2.4 2.3,-0.1 4.2,1.7 4.2,4.4 z m -0.6,0 c 0,-2.3 -1.6,-3.9 -3.8,-3.9 -2.2,0 -3.8,1.6 -3.8,3.9 0,2.3 1.6,4 3.8,4 2.2,-0.1 3.8,-1.7 3.8,-4 z"
   id="path219" />
	<path
   class="st2"
   d="m 560.4,105.4 c 0,-0.3 0.3,-0.6 0.6,-0.6 0.3,0 0.6,0.3 0.6,0.6 0,0.3 -0.3,0.6 -0.6,0.6 -0.3,0 -0.6,-0.3 -0.6,-0.6 z"
   id="path221" />
	<path
   class="st2"
   d="m 563.2,101.5 c 0,-2.6 1.9,-4.5 4.4,-4.5 1.3,0 2.5,0.5 3.3,1.5 l -0.4,0.4 c -0.7,-0.9 -1.7,-1.3 -2.8,-1.3 -2.2,0 -3.8,1.6 -3.8,3.9 0,2.4 1.6,4 3.8,4 1.1,0 2.2,-0.4 2.8,-1.3 l 0.4,0.3 c -0.7,1 -1.9,1.5 -3.3,1.5 -2.6,0 -4.4,-1.9 -4.4,-4.5 z"
   id="path223" />
	<path
   class="st2"
   d="m 572.3,101.5 c 0,-2.6 1.9,-4.5 4.3,-4.5 2.5,0 4.3,1.9 4.3,4.5 0,2.6 -1.8,4.5 -4.3,4.5 -2.4,0 -4.3,-1.9 -4.3,-4.5 z m 8.1,0 c 0,-2.3 -1.6,-3.9 -3.8,-3.9 -2.2,0 -3.8,1.6 -3.8,3.9 0,2.3 1.6,4 3.8,4 2.2,-0.1 3.8,-1.7 3.8,-4 z"
   id="path225" />
	<path
   class="st2"
   d="m 598.2,100.7 v 5.2 h -0.6 v -5.2 c 0,-2.1 -1.1,-3.2 -2.9,-3.2 -2.1,0 -3.5,1.4 -3.5,3.6 v 4.8 h -0.6 v -5.2 c 0,-2.1 -1.1,-3.2 -2.9,-3.2 -2.1,0 -3.5,1.4 -3.5,3.6 v 4.8 h -0.6 v -8.8 h 0.5 v 2.1 c 0.5,-1.3 1.8,-2.2 3.5,-2.2 1.7,0 2.9,0.8 3.3,2.4 0.5,-1.4 1.8,-2.4 3.6,-2.4 2.4,0 3.7,1.3 3.7,3.7 z"
   id="path227" />
</g>
<g
   class="st4"
   id="g233"
   transform="matrix(4.917017,0,0,3.0424378,-2743.4335,-226.50627)">
	<path
   class="st0"
   d="m 606.1,91.6 h 0.5 l -5.6,16 h -0.5 z"
   id="path231" />
</g>
<g
   class="st4"
   id="g247"
   transform="matrix(2.2039734,0,0,2.2039734,-1099.3804,-143.03527)">
	<path
   class="st0"
   d="m 622.5,100.7 v 5.2 h -1.2 v -5.1 c 0,-1.9 -1,-2.9 -2.6,-2.9 -1.8,0 -3,1.2 -3,3.2 v 4.7 h -1.2 v -5.1 c 0,-1.9 -1,-2.9 -2.6,-2.9 -1.8,0 -3,1.2 -3,3.2 v 4.7 h -1.2 V 97 h 1.2 v 1.6 c 0.6,-1.1 1.8,-1.7 3.3,-1.7 1.5,0 2.6,0.6 3.2,1.9 0.6,-1.2 1.9,-1.9 3.5,-1.9 2.2,0 3.6,1.2 3.6,3.8 z"
   id="path235" />
	<path
   class="st0"
   d="m 632.6,100.4 v 5.5 h -1.2 v -1.4 c -0.5,0.9 -1.6,1.5 -3.1,1.5 -2,0 -3.3,-1.1 -3.3,-2.6 0,-1.4 0.9,-2.5 3.5,-2.5 h 2.8 v -0.5 c 0,-1.5 -0.9,-2.4 -2.5,-2.4 -1.2,0 -2.2,0.4 -3,1.1 l -0.5,-0.9 c 0.9,-0.8 2.2,-1.2 3.6,-1.2 2.4,-0.1 3.7,1 3.7,3.4 z m -1.2,2.8 v -1.5 h -2.8 c -1.7,0 -2.3,0.7 -2.3,1.6 0,1 0.8,1.7 2.3,1.7 1.3,0 2.3,-0.6 2.8,-1.8 z"
   id="path237" />
	<path
   class="st0"
   d="m 639.2,101.4 -2.1,1.9 v 2.5 h -1.2 V 93.3 h 1.2 v 8.5 l 5.3,-4.9 h 1.5 l -3.8,3.7 4.2,5.3 h -1.5 z"
   id="path239" />
	<path
   class="st0"
   d="m 644.8,101.4 c 0,-2.7 1.9,-4.5 4.6,-4.5 1.5,0 2.8,0.6 3.5,1.8 l -0.9,0.6 c -0.6,-0.9 -1.6,-1.3 -2.6,-1.3 -2,0 -3.4,1.4 -3.4,3.5 0,2.1 1.4,3.5 3.4,3.5 1,0 2,-0.4 2.6,-1.3 l 0.9,0.6 c -0.7,1.2 -2,1.8 -3.5,1.8 -2.7,-0.1 -4.6,-2 -4.6,-4.7 z"
   id="path241" />
	<path
   class="st0"
   d="m 654.2,101.4 c 0,-2.7 1.9,-4.5 4.6,-4.5 1.5,0 2.8,0.6 3.5,1.8 l -0.9,0.6 c -0.6,-0.9 -1.6,-1.3 -2.6,-1.3 -2,0 -3.4,1.4 -3.4,3.5 0,2.1 1.4,3.5 3.4,3.5 1,0 2,-0.4 2.6,-1.3 l 0.9,0.6 c -0.7,1.2 -2,1.8 -3.5,1.8 -2.6,-0.1 -4.6,-2 -4.6,-4.7 z"
   id="path243" />
	<path
   class="st0"
   d="m 669.2,96.9 v 1.2 c -0.1,0 -0.2,0 -0.3,0 -1.9,0 -3,1.2 -3,3.3 v 4.6 h -1.2 v -9 h 1.2 v 1.8 c 0.5,-1.3 1.7,-1.9 3.3,-1.9 z"
   id="path245" />
</g>
</svg>
