<?xml version="1.0" encoding="utf-8"?>
<!-- Generator: Adobe Illustrator 23.1.0, SVG Export Plug-In . SVG Version: 6.00 Build 0)  -->
<svg version="1.1" id="Layer_1" xmlns="http://www.w3.org/2000/svg" xmlns:xlink="http://www.w3.org/1999/xlink" x="0px" y="0px"
	 viewBox="0 0 980 150" style="enable-background:new 0 0 980 150;" xml:space="preserve">
<style type="text/css">
	.st0{fill:#DC3232;}
	.st1{fill:#9D0006;}
	.st2{fill:#FB4934;}
	.st3{fill:#CC241D;}
	.st4{enable-background:new    ;}
</style>
<polygon class="st0" points="0.5,0 0.5,38.7 112.5,116.4 112.5,78.8 "/>
<polygon class="st1" points="37.2,72 37.2,94.5 55.4,83.3 "/>
<polygon class="st2" points="0.5,47 31.9,68.9 31.9,150 0.5,150 "/>
<polygon class="st3" points="113.5,4 113.5,42.4 92.7,57.2 65.3,38 "/>
<polygon class="st1" points="119.1,1 119.1,150.1 150.5,150.3 150.5,1 "/>
<g class="st4">
	<path class="st0" d="M203.6,50.9v23.8h-2.4v-19l-9.3,16h-1.2l-9.3-15.9v18.9h-2.4V50.9h2.1l10.3,17.6l10.2-17.6H203.6z"/>
	<path class="st0" d="M251.3,68.3H238l-2.9,6.4h-2.6l10.9-23.8h2.5l10.9,23.8h-2.7L251.3,68.3z M250.3,66.3l-5.7-12.8l-5.7,12.8
		H250.3z"/>
	<path class="st0" d="M283.3,62.8c0-7,5.3-12.1,12.5-12.1c3.5,0,6.6,1.2,8.7,3.5l-1.6,1.6c-1.9-2-4.3-2.8-7-2.8
		c-5.7,0-10.1,4.2-10.1,9.9c0,5.6,4.3,9.9,10.1,9.9c2.7,0,5.1-0.8,7-2.9l1.6,1.6c-2.1,2.3-5.2,3.5-8.7,3.5
		C288.6,74.9,283.3,69.8,283.3,62.8z"/>
	<path class="st0" d="M342.2,63.5l-4.9,4.9v6.3h-2.5V50.9h2.5v14.4l14-14.4h2.9l-10.3,10.8l11,13h-3L342.2,63.5z"/>
	<path class="st0" d="M400.8,72.5v2.2H384V50.9h16.3v2.2h-13.8v8.5h12.3v2.1h-12.3v8.8H400.8z"/>
	<path class="st0" d="M451.6,50.9v23.8h-2.1l-15.3-19.3v19.3h-2.5V50.9h2.1l15.3,19.3V50.9H451.6z"/>
	<path class="st0" d="M501.5,72.5v2.2H482V73l15.8-19.9h-15.5v-2.2h18.9v1.7l-15.7,19.9H501.5z"/>
	<path class="st0" d="M531.5,50.9h2.5v23.8h-2.5V50.9z"/>
	<path class="st0" d="M583.5,72.5v2.2h-16.8V50.9H583v2.2h-13.8v8.5h12.3v2.1h-12.3v8.8H583.5z"/>
</g>
<g class="st4">
	<path class="st2" d="M617.4,62.8c0-6.9,5.3-12,12.3-12c3.2,0,6.2,1.1,8.3,3.2l-0.7,0.7c-2.1-2-4.7-2.9-7.5-2.9
		c-6.4,0-11.2,4.8-11.2,11c0,6.2,4.8,11,11.2,11c2.8,0,5.4-0.8,7.5-2.9l0.7,0.7c-2.1,2.1-5,3.2-8.3,3.2
		C622.7,74.8,617.4,69.7,617.4,62.8z"/>
	<path class="st2" d="M685.8,74.7l-5.9-8.2c-0.8,0.1-1.7,0.2-2.6,0.2h-7.1v8h-1.2V50.9h8.3c5.9,0,9.5,2.9,9.5,7.9
		c0,3.8-2.1,6.5-5.7,7.4l6.1,8.5H685.8z M677.4,65.7c5.3,0,8.3-2.5,8.3-6.9c0-4.4-2.9-6.8-8.3-6.8h-7.2v13.7H677.4z"/>
	<path class="st2" d="M718.5,50.9h1.2v23.8h-1.2V50.9z"/>
	<path class="st2" d="M750.9,71.5l0.6-0.8c1.5,1.7,4.6,3.1,7.9,3.1c5,0,7.2-2.3,7.2-5c0-7.6-15-3.1-15-11.9c0-3.2,2.4-6.1,8.1-6.1
		c2.6,0,5.3,0.8,7,2.2l-0.5,0.9c-1.9-1.4-4.4-2.1-6.5-2.1c-4.8,0-7,2.3-7,5.1c0,7.6,15,3.2,15,11.9c0,3.2-2.5,6.1-8.3,6.1
		C755.9,74.8,752.5,73.5,750.9,71.5z"/>
	<path class="st2" d="M830,50.9l-8.1,23.8h-1.2L813,52.5l-7.7,22.2h-1.2L796,50.9h1.2l7.5,22.1l7.8-22.1h1.1l7.7,22.2l7.6-22.2H830z
		"/>
	<path class="st2" d="M876.4,73.6v1.1h-16.1V50.9h15.6V52h-14.4v10.1h12.9v1.1h-12.9v10.5H876.4z"/>
	<path class="st2" d="M908,50.9h1.2v22.7h13.9v1.1H908V50.9z"/>
	<path class="st2" d="M952.8,50.9h1.2v22.7h13.9v1.1h-15.1V50.9z"/>
</g>
<g class="st4">
	<path class="st2" d="M512.7,97.1v8c0,2.9-1.4,4.2-4.2,4.2c-1.6,0-3.1-0.5-4-1.4l0.3-0.4c0.9,0.9,2.2,1.3,3.6,1.3
		c2.5,0,3.6-1.1,3.6-3.6v-1.9c-0.7,1.4-2.1,2.3-3.8,2.3c-2.5,0-4.4-1.8-4.4-4.3s1.9-4.3,4.4-4.3c1.8,0,3.2,0.9,3.9,2.4v-2.3H512.7z
		 M512.1,101.3c0-2.2-1.6-3.8-3.8-3.8s-3.8,1.5-3.8,3.8s1.6,3.8,3.8,3.8S512.1,103.5,512.1,101.3z"/>
	<path class="st2" d="M516.1,94.2c0-0.3,0.3-0.6,0.6-0.6s0.6,0.3,0.6,0.5c0,0.3-0.3,0.6-0.6,0.6S516.1,94.5,516.1,94.2z M516.4,97.1
		h0.6v8.8h-0.6V97.1z"/>
	<path class="st2" d="M524.9,105.3c-0.4,0.4-1.1,0.6-1.8,0.6c-1.5,0-2.2-0.9-2.2-2.3v-6.1h-1.7v-0.5h1.7v-1.9h0.6v1.9h2.9v0.5h-2.9
		v6c0,1.2,0.6,1.9,1.7,1.9c0.5,0,1.1-0.2,1.4-0.5L524.9,105.3z"/>
	<path class="st2" d="M535.1,100.7v5.2h-0.6v-5.2c0-2.1-1.1-3.2-3-3.2c-2.2,0-3.6,1.4-3.6,3.6v4.8h-0.6V93.3h0.6v5.9
		c0.6-1.3,1.8-2.2,3.6-2.2C533.8,97,535.1,98.3,535.1,100.7z"/>
	<path class="st2" d="M546.4,97.1v8.8h-0.5v-2.1c-0.5,1.4-1.8,2.2-3.5,2.2c-2.2,0-3.7-1.3-3.7-3.7v-5.2h0.6v5.2
		c0,2.1,1.1,3.2,3.1,3.2c2.1,0,3.4-1.4,3.4-3.6v-4.8H546.4z"/>
	<path class="st2" d="M558.8,101.5c0,2.6-1.9,4.5-4.3,4.5c-1.7,0-3.1-0.9-3.8-2.5v2.4h-0.5V93.3h0.6v6.2c0.7-1.5,2.1-2.4,3.8-2.4
		C556.9,97,558.8,98.8,558.8,101.5z M558.2,101.5c0-2.3-1.6-3.9-3.8-3.9c-2.2,0-3.8,1.6-3.8,3.9s1.6,4,3.8,4
		C556.6,105.4,558.2,103.8,558.2,101.5z"/>
	<path class="st2" d="M560.4,105.4c0-0.3,0.3-0.6,0.6-0.6s0.6,0.3,0.6,0.6c0,0.3-0.3,0.6-0.6,0.6S560.4,105.7,560.4,105.4z"/>
	<path class="st2" d="M563.2,101.5c0-2.6,1.9-4.5,4.4-4.5c1.3,0,2.5,0.5,3.3,1.5l-0.4,0.4c-0.7-0.9-1.7-1.3-2.8-1.3
		c-2.2,0-3.8,1.6-3.8,3.9c0,2.4,1.6,4,3.8,4c1.1,0,2.2-0.4,2.8-1.3l0.4,0.3c-0.7,1-1.9,1.5-3.3,1.5C565,106,563.2,104.1,563.2,101.5
		z"/>
	<path class="st2" d="M572.3,101.5c0-2.6,1.9-4.5,4.3-4.5c2.5,0,4.3,1.9,4.3,4.5c0,2.6-1.8,4.5-4.3,4.5
		C574.2,106,572.3,104.1,572.3,101.5z M580.4,101.5c0-2.3-1.6-3.9-3.8-3.9c-2.2,0-3.8,1.6-3.8,3.9s1.6,4,3.8,4
		C578.8,105.4,580.4,103.8,580.4,101.5z"/>
	<path class="st2" d="M598.2,100.7v5.2h-0.6v-5.2c0-2.1-1.1-3.2-2.9-3.2c-2.1,0-3.5,1.4-3.5,3.6v4.8h-0.6v-5.2
		c0-2.1-1.1-3.2-2.9-3.2c-2.1,0-3.5,1.4-3.5,3.6v4.8h-0.6v-8.8h0.5v2.1c0.5-1.3,1.8-2.2,3.5-2.2c1.7,0,2.9,0.8,3.3,2.4
		c0.5-1.4,1.8-2.4,3.6-2.4C596.9,97,598.2,98.3,598.2,100.7z"/>
</g>
<g class="st4">
	<path class="st0" d="M606.1,91.6h0.5l-5.6,16h-0.5L606.1,91.6z"/>
</g>
<g class="st4">
	<path class="st0" d="M622.5,100.7v5.2h-1.2v-5.1c0-1.9-1-2.9-2.6-2.9c-1.8,0-3,1.2-3,3.2v4.7h-1.2v-5.1c0-1.9-1-2.9-2.6-2.9
		c-1.8,0-3,1.2-3,3.2v4.7h-1.2V97h1.2v1.6c0.6-1.1,1.8-1.7,3.3-1.7c1.5,0,2.6,0.6,3.2,1.9c0.6-1.2,1.9-1.9,3.5-1.9
		C621.1,96.9,622.5,98.1,622.5,100.7z"/>
	<path class="st0" d="M632.6,100.4v5.5h-1.2v-1.4c-0.5,0.9-1.6,1.5-3.1,1.5c-2,0-3.3-1.1-3.3-2.6c0-1.4,0.9-2.5,3.5-2.5h2.8v-0.5
		c0-1.5-0.9-2.4-2.5-2.4c-1.2,0-2.2,0.4-3,1.1l-0.5-0.9c0.9-0.8,2.2-1.2,3.6-1.2C631.3,96.9,632.6,98,632.6,100.4z M631.4,103.2
		v-1.5h-2.8c-1.7,0-2.3,0.7-2.3,1.6c0,1,0.8,1.7,2.3,1.7C629.9,105,630.9,104.4,631.4,103.2z"/>
	<path class="st0" d="M639.2,101.4l-2.1,1.9v2.5h-1.2V93.3h1.2v8.5l5.3-4.9h1.5l-3.8,3.7l4.2,5.3h-1.5L639.2,101.4z"/>
	<path class="st0" d="M644.8,101.4c0-2.7,1.9-4.5,4.6-4.5c1.5,0,2.8,0.6,3.5,1.8l-0.9,0.6c-0.6-0.9-1.6-1.3-2.6-1.3
		c-2,0-3.4,1.4-3.4,3.5c0,2.1,1.4,3.5,3.4,3.5c1,0,2-0.4,2.6-1.3l0.9,0.6c-0.7,1.2-2,1.8-3.5,1.8C646.7,106,644.8,104.1,644.8,101.4
		z"/>
	<path class="st0" d="M654.2,101.4c0-2.7,1.9-4.5,4.6-4.5c1.5,0,2.8,0.6,3.5,1.8l-0.9,0.6c-0.6-0.9-1.6-1.3-2.6-1.3
		c-2,0-3.4,1.4-3.4,3.5c0,2.1,1.4,3.5,3.4,3.5c1,0,2-0.4,2.6-1.3l0.9,0.6c-0.7,1.2-2,1.8-3.5,1.8C656.2,106,654.2,104.1,654.2,101.4
		z"/>
	<path class="st0" d="M669.2,96.9v1.2c-0.1,0-0.2,0-0.3,0c-1.9,0-3,1.2-3,3.3v4.6h-1.2V97h1.2v1.8C666.4,97.5,667.6,96.9,669.2,96.9
		z"/>
</g>
</svg>
