<?xml version="1.0" encoding="utf-8"?>
<!-- Generator: Adobe Illustrator 23.1.0, SVG Export Plug-In . SVG Version: 6.00 Build 0)  -->
<svg version="1.1" id="Layer_1" xmlns="http://www.w3.org/2000/svg" xmlns:xlink="http://www.w3.org/1999/xlink" x="0px" y="0px"
	 viewBox="0 0 980 150" style="enable-background:new 0 0 980 150;" xml:space="preserve">
<style type="text/css">
	.st0{fill:#DC3232;}
	.st1{fill:#9D0006;}
	.st2{fill:#FB4934;}
	.st3{fill:#CC241D;}
	.st4{enable-background:new    ;}
	.st5{fill:#EB4B29;}
	.st6{fill:#9B0E00;}
</style>
<polygon class="st0" points="1,0 1,38.7 113,116.5 113,78.8 "/>
<polygon class="st1" points="37.7,72.1 37.7,94.6 55.9,83.3 "/>
<polygon class="st2" points="1,47.1 32.4,68.9 32.4,150 1,150 "/>
<polygon class="st3" points="114,4 114,42.5 93.2,57.2 65.8,38 "/>
<polygon class="st1" points="119.6,0 119.6,149.2 151,149.3 151,0 "/>
<g class="st4">
	<path class="st5" d="M234.4,36.2v60.3h-6.1V48.3l-23.7,40.6h-3l-23.7-40.3v48h-6.1V36.2h5.3L203.2,81l25.9-44.7L234.4,36.2
		L234.4,36.2z"/>
	<path class="st5" d="M286.9,68.5v28.1H281v-7.1c-2.8,4.7-8.1,7.5-15.6,7.5c-10.3,0-16.5-5.3-16.5-13.2c0-7,4.5-12.8,17.5-12.8h14.4
		v-2.8c0-7.8-4.4-12-12.8-12c-5.9,0-11.4,2.1-15.1,5.3l-2.8-4.6c4.6-3.9,11.3-6.1,18.4-6.1C280.3,50.9,286.9,56.8,286.9,68.5z
		 M280.8,82.9v-7.4h-14.2c-8.8,0-11.6,3.4-11.6,8.1c0,5.3,4.2,8.5,11.5,8.5C273.3,92.2,278.4,88.9,280.8,82.9z"/>
	<path class="st5" d="M299.2,73.9c0-13.5,9.8-23,23.4-23c7.7,0,14.1,3,17.8,9l-4.6,3.1c-3.1-4.6-7.9-6.7-13.2-6.7
		c-9.9,0-17.1,7.1-17.1,17.7c0,10.7,7.2,17.7,17.1,17.7c5.3,0,10.1-2.1,13.2-6.6l4.6,3.1c-3.6,5.9-10.1,9-17.8,9
		C309,97,299.2,87.4,299.2,73.9z"/>
	<path class="st5" d="M368.4,73.8l-10.7,9.8v12.9h-6.1V32.6h6.1V76l27.1-24.7h7.6L373,69.8l21.2,26.8h-7.5L368.4,73.8z"/>
	<path class="st5" d="M441,75.8h-37.9c0.7,9.5,7.9,15.8,17.8,15.8c5.5,0,10.4-2,13.9-5.9l3.4,4c-4,4.8-10.3,7.4-17.5,7.4
		c-14.1,0-23.8-9.7-23.8-23.1s9.4-23,22.1-23c12.8,0,22,9.4,22,23C441.1,74.4,441,75.1,441,75.8z M403.1,71.2h32.1
		c-0.8-8.9-7.2-15.1-16.1-15.1C410.3,56.1,403.8,62.4,403.1,71.2z"/>
	<path class="st5" d="M495.3,70.3v26.3h-6.1V70.9c0-9.6-5-14.5-13.6-14.5c-9.7,0-15.9,6-15.9,16.4v23.8h-6.1V51.2h5.9v8.4
		c3.3-5.5,9.4-8.7,17.2-8.7C487.7,50.9,495.3,57.3,495.3,70.3z"/>
	<path class="st5" d="M543.9,91.5v5.1H507v-4.1l28.5-36.1h-28v-5.2h35.8v4l-28.5,36.2L543.9,91.5L543.9,91.5z"/>
	<path class="st5" d="M554.5,36.9c0-2.3,2-4.3,4.5-4.3s4.5,1.9,4.5,4.2c0,2.5-1.9,4.5-4.5,4.5C556.5,41.3,554.5,39.3,554.5,36.9z
		 M555.9,51.2h6.1v45.3h-6.1V51.2z"/>
	<path class="st5" d="M618.6,75.8h-37.9c0.7,9.5,7.9,15.8,17.8,15.8c5.5,0,10.4-2,13.9-5.9l3.4,4c-4,4.8-10.3,7.4-17.5,7.4
		c-14.1,0-23.8-9.7-23.8-23.1s9.4-23,22.1-23s22,9.4,22,23C618.6,74.4,618.6,75.1,618.6,75.8z M580.6,71.2h32.1
		c-0.8-8.9-7.2-15.1-16.1-15.1C587.9,56.1,581.4,62.4,580.6,71.2z"/>
</g>
<g class="st4">
	<path class="st5" d="M652.3,66.4c0-17.6,13.4-30.6,31.3-30.6c8.5,0,16.2,2.8,21.5,8.4l-2.8,2.8c-5.2-5.1-11.5-7.2-18.5-7.2
		c-15.4,0-27.1,11.4-27.1,26.5c0,15.2,11.6,26.5,27.1,26.5c7.1,0,13.4-2.2,18.5-7.2l2.8,2.8c-5.3,5.6-12.9,8.4-21.5,8.4
		C665.6,97,652.3,84,652.3,66.4z"/>
	<path class="st5" d="M739.6,51.2v4.2c-0.3,0-0.7-0.1-1-0.1c-10,0-15.9,6.6-15.9,17.8v23.4h-4.3v-45h4.1v9.8
		C725.2,54.9,731.2,51.2,739.6,51.2z"/>
	<path class="st5" d="M750.1,37.2c0-1.9,1.6-3.5,3.5-3.5s3.5,1.6,3.5,3.4c0,2-1.6,3.5-3.5,3.5S750.1,39.1,750.1,37.2z M751.5,51.6
		h4.3v45h-4.3V51.6z"/>
	<path class="st5" d="M767.4,91.1l2-3.4c3.4,2.9,9.6,5.4,16.2,5.4c9.5,0,13.3-3.4,13.3-8.4c0-13.1-29.8-3.4-29.8-21.1
		c0-6.8,5.7-12.3,17.1-12.3c5.7,0,11.9,1.7,15.4,4.4l-2,3.4c-3.8-2.8-8.7-4-13.5-4c-8.8,0-12.7,3.6-12.7,8.4
		c0,13.5,29.8,4,29.8,21.1c0,7.3-6.3,12.3-17.8,12.3C778,96.9,770.9,94.4,767.4,91.1z"/>
	<path class="st5" d="M878.6,51.6l-17.1,45h-4l-15.2-39l-15.3,39h-4l-17.1-45h4.1l15,40.2l15.3-40.2h3.7l15.3,40.1l15.2-40.1H878.6z
		"/>
	<path class="st5" d="M925.3,75.1h-38.7c0.4,10.7,8.3,17.9,19,17.9c5.7,0,10.9-2.1,14.4-6.3l2.5,2.8c-4,4.8-10.2,7.3-17,7.3
		c-13.6,0-23.2-9.5-23.2-22.8c0-13.4,9.2-22.8,21.5-22.8s21.5,9.3,21.5,22.7C925.4,74.2,925.3,74.7,925.3,75.1z M886.7,71.7h34.5
		C920.6,62,913.5,55,903.9,55S887.4,61.9,886.7,71.7z"/>
	<path class="st5" d="M938.7,32.6h4.3v63.9h-4.3V32.6z"/>
	<path class="st5" d="M961.2,32.6h4.3v63.9h-4.3V32.6z"/>
</g>
<g class="st4">
	<path class="st6" d="M362,112.1v7.4c0,2.9-1.4,4.2-4.2,4.2c-1.5,0-3-0.5-3.9-1.3l0.6-0.9c0.8,0.7,2,1.2,3.3,1.2
		c2.1,0,3.1-1,3.1-3.1v-1.1c-0.7,1.1-1.9,1.6-3.3,1.6c-2.4,0-4.2-1.7-4.2-4.1s1.8-4.1,4.2-4.1c1.4,0,2.6,0.6,3.3,1.7V112h1.1V112.1z
		 M360.9,116.1c0-1.8-1.3-3.1-3.2-3.1c-1.9,0-3.2,1.2-3.2,3.1c0,1.8,1.3,3.1,3.2,3.1S360.9,117.9,360.9,116.1z"/>
	<path class="st6" d="M364.9,109.4c0-0.4,0.4-0.8,0.8-0.8c0.5,0,0.8,0.4,0.8,0.8c0,0.5-0.4,0.8-0.8,0.8
		C365.3,110.3,364.9,109.9,364.9,109.4z M365.2,112.1h1.1v8.4h-1.1V112.1z"/>
	<path class="st6" d="M373.9,120c-0.4,0.4-1.1,0.6-1.8,0.6c-1.6,0-2.5-0.9-2.5-2.4v-5.1h-1.5v-1h1.5v-1.8h1.1v1.8h2.6v1h-2.6v5
		c0,1,0.5,1.5,1.5,1.5c0.5,0,0.9-0.1,1.2-0.4L373.9,120z"/>
	<path class="st6" d="M383.7,115.6v4.9h-1.1v-4.8c0-1.8-0.9-2.7-2.5-2.7c-1.8,0-2.9,1.1-2.9,3v4.4H376v-11.9h1.1v4.9
		c0.6-1,1.7-1.5,3.2-1.5C382.3,112,383.7,113.2,383.7,115.6z"/>
	<path class="st6" d="M394.4,112.1v8.4h-1.1V119c-0.6,1-1.7,1.6-3,1.6c-2.1,0-3.6-1.2-3.6-3.6v-4.9h1.1v4.8c0,1.8,0.9,2.7,2.5,2.7
		c1.8,0,2.9-1.1,2.9-3.1v-4.4H394.4z"/>
	<path class="st6" d="M406.1,116.3c0,2.5-1.8,4.3-4.2,4.3c-1.4,0-2.6-0.6-3.2-1.7v1.7h-1.1v-11.9h1.1v5.1c0.7-1.1,1.9-1.7,3.2-1.7
		C404.3,112,406.1,113.8,406.1,116.3z M405,116.3c0-2-1.4-3.3-3.1-3.3c-1.8,0-3.1,1.3-3.1,3.3s1.3,3.3,3.1,3.3
		C403.6,119.6,405,118.3,405,116.3z"/>
	<path class="st6" d="M407.5,119.7c0-0.5,0.4-0.9,0.8-0.9c0.5,0,0.9,0.4,0.9,0.9s-0.4,0.9-0.9,0.9S407.5,120.2,407.5,119.7z"/>
	<path class="st6" d="M410.5,116.3c0-2.5,1.8-4.3,4.3-4.3c1.4,0,2.6,0.6,3.3,1.7l-0.8,0.6c-0.6-0.8-1.5-1.2-2.4-1.2
		c-1.8,0-3.2,1.3-3.2,3.3s1.3,3.3,3.2,3.3c1,0,1.9-0.4,2.4-1.2l0.8,0.6c-0.7,1.1-1.9,1.7-3.3,1.7
		C412.3,120.6,410.5,118.8,410.5,116.3z"/>
	<path class="st6" d="M419.4,116.3c0-2.5,1.8-4.3,4.3-4.3s4.3,1.8,4.3,4.3s-1.8,4.3-4.3,4.3C421.2,120.6,419.4,118.8,419.4,116.3z
		 M426.8,116.3c0-2-1.3-3.3-3.1-3.3c-1.8,0-3.1,1.3-3.1,3.3s1.3,3.3,3.1,3.3C425.5,119.6,426.8,118.3,426.8,116.3z"/>
	<path class="st6" d="M444.1,115.6v4.9H443v-4.8c0-1.8-0.9-2.7-2.4-2.7c-1.7,0-2.8,1.1-2.8,3v4.4h-1.1v-4.8c0-1.8-0.9-2.7-2.4-2.7
		c-1.7,0-2.8,1.1-2.8,3v4.4h-1.1v-8.4h1.1v1.5c0.6-1,1.7-1.6,3.1-1.6s2.5,0.6,3,1.8c0.6-1.1,1.8-1.8,3.3-1.8
		C442.8,112,444.1,113.2,444.1,115.6z"/>
	<path class="st6" d="M450.5,107h1l-5.3,15.1h-1L450.5,107z"/>
	<path class="st6" d="M465.4,115.6v4.9h-1.1v-4.8c0-1.8-0.9-2.7-2.4-2.7c-1.7,0-2.8,1.1-2.8,3v4.4H458v-4.8c0-1.8-0.9-2.7-2.4-2.7
		c-1.7,0-2.8,1.1-2.8,3v4.4h-1.1v-8.4h1.1v1.5c0.6-1,1.7-1.6,3.1-1.6s2.5,0.6,3,1.8c0.6-1.1,1.8-1.8,3.3-1.8
		C464,112,465.4,113.2,465.4,115.6z"/>
	<path class="st6" d="M474.8,115.3v5.2h-1.1v-1.3c-0.5,0.9-1.5,1.4-2.9,1.4c-1.9,0-3.1-1-3.1-2.4c0-1.3,0.8-2.4,3.2-2.4h2.7v-0.5
		c0-1.4-0.8-2.2-2.4-2.2c-1.1,0-2.1,0.4-2.8,1l-0.5-0.8c0.8-0.7,2.1-1.1,3.4-1.1C473.6,112,474.8,113.1,474.8,115.3z M473.7,118
		v-1.4H471c-1.6,0-2.2,0.6-2.2,1.5c0,1,0.8,1.6,2.1,1.6C472.3,119.7,473.2,119.1,473.7,118z"/>
	<path class="st6" d="M481,116.3l-2,1.8v2.4h-1.1v-11.9h1.1v8.1l5-4.6h1.4l-3.6,3.4l3.9,5h-1.4L481,116.3z"/>
	<path class="st6" d="M486.3,116.3c0-2.5,1.8-4.3,4.3-4.3c1.4,0,2.6,0.6,3.3,1.7l-0.8,0.6c-0.6-0.8-1.5-1.2-2.4-1.2
		c-1.8,0-3.2,1.3-3.2,3.3s1.3,3.3,3.2,3.3c1,0,1.9-0.4,2.4-1.2l0.8,0.6c-0.7,1.1-1.9,1.7-3.3,1.7
		C488.2,120.6,486.3,118.8,486.3,116.3z"/>
	<path class="st6" d="M495.2,116.3c0-2.5,1.8-4.3,4.3-4.3c1.4,0,2.6,0.6,3.3,1.7l-0.8,0.6c-0.6-0.8-1.5-1.2-2.4-1.2
		c-1.8,0-3.2,1.3-3.2,3.3s1.3,3.3,3.2,3.3c1,0,1.9-0.4,2.4-1.2l0.8,0.6c-0.7,1.1-1.9,1.7-3.3,1.7C497,120.6,495.2,118.8,495.2,116.3
		z"/>
	<path class="st6" d="M509.3,112v1.1c-0.1,0-0.2,0-0.3,0c-1.8,0-2.8,1.1-2.8,3.1v4.3h-1.1v-8.4h1.1v1.6
		C506.7,112.6,507.8,112,509.3,112z"/>
</g>
<g class="st4">
	<path class="st5" d="M517.1,108.6h3.3v15h-3.3V108.6z"/>
</g>
<g class="st4">
	<path class="st6" d="M541.1,115.6v4.9H540v-4.8c0-1.8-0.9-2.7-2.4-2.7c-1.7,0-2.8,1.1-2.8,3v4.4h-1.1v-4.8c0-1.8-0.9-2.7-2.4-2.7
		c-1.7,0-2.8,1.1-2.8,3v4.4h-1.1v-8.4h1.1v1.5c0.6-1,1.7-1.6,3.1-1.6c1.4,0,2.5,0.6,3,1.8c0.6-1.1,1.8-1.8,3.3-1.8
		C539.8,112,541.1,113.2,541.1,115.6z"/>
	<path class="st6" d="M550.5,115.3v5.2h-1.1v-1.3c-0.5,0.9-1.5,1.4-2.9,1.4c-1.9,0-3.1-1-3.1-2.4c0-1.3,0.8-2.4,3.2-2.4h2.7v-0.5
		c0-1.4-0.8-2.2-2.4-2.2c-1.1,0-2.1,0.4-2.8,1l-0.5-0.8c0.8-0.7,2.1-1.1,3.4-1.1C549.3,112,550.5,113.1,550.5,115.3z M549.4,118
		v-1.4h-2.6c-1.6,0-2.2,0.6-2.2,1.5c0,1,0.8,1.6,2.1,1.6C548,119.7,549,119.1,549.4,118z"/>
	<path class="st6" d="M556.7,116.3l-2,1.8v2.4h-1.1v-11.9h1.1v8.1l5-4.6h1.4l-3.6,3.4l3.9,5h-1.4L556.7,116.3z"/>
	<path class="st6" d="M562.1,116.3c0-2.5,1.8-4.3,4.3-4.3c1.4,0,2.6,0.6,3.3,1.7l-0.8,0.6c-0.6-0.8-1.5-1.2-2.4-1.2
		c-1.8,0-3.2,1.3-3.2,3.3c0,2,1.3,3.3,3.2,3.3c1,0,1.9-0.4,2.4-1.2l0.8,0.6c-0.7,1.1-1.9,1.7-3.3,1.7
		C563.9,120.6,562.1,118.8,562.1,116.3z"/>
	<path class="st6" d="M571.5,119.7c0-0.5,0.4-0.9,0.8-0.9c0.5,0,0.9,0.4,0.9,0.9c0,0.5-0.4,0.9-0.9,0.9
		C571.9,120.6,571.5,120.2,571.5,119.7z"/>
	<path class="st6" d="M574.5,116.3c0-2.5,1.8-4.3,4.3-4.3c1.4,0,2.6,0.6,3.3,1.7l-0.8,0.6c-0.6-0.8-1.5-1.2-2.4-1.2
		c-1.8,0-3.2,1.3-3.2,3.3c0,2,1.3,3.3,3.2,3.3c1,0,1.9-0.4,2.4-1.2l0.8,0.6c-0.7,1.1-1.9,1.7-3.3,1.7
		C576.4,120.6,574.5,118.8,574.5,116.3z"/>
	<path class="st6" d="M583.4,116.3c0-2.5,1.8-4.3,4.3-4.3c2.5,0,4.3,1.8,4.3,4.3s-1.8,4.3-4.3,4.3
		C585.2,120.6,583.4,118.8,583.4,116.3z M590.8,116.3c0-2-1.3-3.3-3.1-3.3c-1.8,0-3.1,1.3-3.1,3.3s1.3,3.3,3.1,3.3
		C589.5,119.6,590.8,118.3,590.8,116.3z"/>
</g>
<g class="st4">
	<path class="st5" d="M598.1,108.6h3.3v15h-3.3V108.6z"/>
</g>
<g class="st4">
	<path class="st6" d="M615.2,112.1l-4.2,9.4c-0.7,1.6-1.6,2.2-2.8,2.2c-0.8,0-1.5-0.3-2-0.8l0.5-0.8c0.4,0.4,0.9,0.6,1.5,0.6
		c0.8,0,1.3-0.4,1.7-1.4l0.4-0.8l-3.8-8.4h1.2l3.2,7.2l3.2-7.2L615.2,112.1L615.2,112.1z"/>
	<path class="st6" d="M615.7,116.3c0-2.5,1.8-4.3,4.3-4.3s4.3,1.8,4.3,4.3s-1.8,4.3-4.3,4.3C617.5,120.6,615.7,118.8,615.7,116.3z
		 M623.1,116.3c0-2-1.3-3.3-3.1-3.3s-3.1,1.3-3.1,3.3s1.3,3.3,3.1,3.3C621.8,119.6,623.1,118.3,623.1,116.3z"/>
	<path class="st6" d="M634.2,112.1v8.4h-1.1V119c-0.6,1-1.7,1.6-3,1.6c-2.1,0-3.6-1.2-3.6-3.6v-4.9h1.1v4.8c0,1.8,0.9,2.7,2.5,2.7
		c1.8,0,2.9-1.1,2.9-3.1v-4.4H634.2z"/>
	<path class="st6" d="M641.8,120c-0.4,0.4-1.1,0.6-1.8,0.6c-1.6,0-2.5-0.9-2.5-2.4v-5.1H636v-1h1.5v-1.8h1.1v1.8h2.6v1h-2.6v5
		c0,1,0.5,1.5,1.5,1.5c0.5,0,0.9-0.1,1.2-0.4L641.8,120z"/>
	<path class="st6" d="M651.4,112.1v8.4h-1.1V119c-0.6,1-1.7,1.6-3,1.6c-2.1,0-3.6-1.2-3.6-3.6v-4.9h1.1v4.8c0,1.8,0.9,2.7,2.5,2.7
		c1.8,0,2.9-1.1,2.9-3.1v-4.4H651.4z"/>
	<path class="st6" d="M663.1,116.3c0,2.5-1.8,4.3-4.2,4.3c-1.4,0-2.6-0.6-3.2-1.7v1.7h-1.1v-11.9h1.1v5.1c0.7-1.1,1.9-1.7,3.2-1.7
		C661.3,112,663.1,113.8,663.1,116.3z M662,116.3c0-2-1.4-3.3-3.1-3.3c-1.8,0-3.1,1.3-3.1,3.3s1.3,3.3,3.1,3.3
		C660.6,119.6,662,118.3,662,116.3z"/>
	<path class="st6" d="M672.8,116.7h-7c0.1,1.8,1.5,2.9,3.3,2.9c1,0,1.9-0.4,2.6-1.1l0.6,0.7c-0.8,0.9-1.9,1.4-3.2,1.4
		c-2.6,0-4.4-1.8-4.4-4.3s1.7-4.3,4.1-4.3s4.1,1.7,4.1,4.3C672.8,116.4,672.8,116.5,672.8,116.7z M665.7,115.8h6
		c-0.1-1.6-1.3-2.8-3-2.8C667.1,113,665.9,114.2,665.7,115.8z"/>
	<path class="st6" d="M674.4,119.7c0-0.5,0.4-0.9,0.8-0.9s0.9,0.4,0.9,0.9s-0.4,0.9-0.9,0.9S674.4,120.2,674.4,119.7z"/>
	<path class="st6" d="M677.4,116.3c0-2.5,1.8-4.3,4.3-4.3c1.4,0,2.6,0.6,3.3,1.7l-0.8,0.6c-0.6-0.8-1.5-1.2-2.4-1.2
		c-1.8,0-3.2,1.3-3.2,3.3s1.3,3.3,3.2,3.3c1,0,1.9-0.4,2.4-1.2l0.8,0.6c-0.7,1.1-1.9,1.7-3.3,1.7
		C679.2,120.6,677.4,118.8,677.4,116.3z"/>
	<path class="st6" d="M686.3,116.3c0-2.5,1.8-4.3,4.3-4.3s4.3,1.8,4.3,4.3s-1.8,4.3-4.3,4.3S686.3,118.8,686.3,116.3z M693.7,116.3
		c0-2-1.3-3.3-3.1-3.3s-3.1,1.3-3.1,3.3s1.3,3.3,3.1,3.3S693.7,118.3,693.7,116.3z"/>
	<path class="st6" d="M711.1,115.6v4.9H710v-4.8c0-1.8-0.9-2.7-2.4-2.7c-1.7,0-2.8,1.1-2.8,3v4.4h-1.1v-4.8c0-1.8-0.9-2.7-2.4-2.7
		c-1.7,0-2.8,1.1-2.8,3v4.4h-1.1v-8.4h1.1v1.5c0.6-1,1.7-1.6,3.1-1.6c1.4,0,2.5,0.6,3,1.8c0.6-1.1,1.8-1.8,3.3-1.8
		C709.7,112,711.1,113.2,711.1,115.6z"/>
	<path class="st6" d="M717.4,107h1l-5.3,15.1h-1L717.4,107z"/>
	<path class="st6" d="M717.6,116.3c0-2.5,1.8-4.3,4.3-4.3c1.4,0,2.6,0.6,3.3,1.7l-0.8,0.6c-0.6-0.8-1.5-1.2-2.4-1.2
		c-1.8,0-3.2,1.3-3.2,3.3s1.3,3.3,3.2,3.3c1,0,1.9-0.4,2.4-1.2l0.8,0.6c-0.7,1.1-1.9,1.7-3.3,1.7
		C719.4,120.6,717.6,118.8,717.6,116.3z"/>
	<path class="st6" d="M730.7,107h1l-5.3,15.1h-1L730.7,107z"/>
	<path class="st6" d="M745.6,115.6v4.9h-1.1v-4.8c0-1.8-0.9-2.7-2.4-2.7c-1.7,0-2.8,1.1-2.8,3v4.4h-1.1v-4.8c0-1.8-0.9-2.7-2.4-2.7
		c-1.7,0-2.8,1.1-2.8,3v4.4h-1.1v-8.4h1.1v1.5c0.6-1,1.7-1.6,3.1-1.6c1.4,0,2.5,0.6,3,1.8c0.6-1.1,1.8-1.8,3.3-1.8
		C744.2,112,745.6,113.2,745.6,115.6z"/>
	<path class="st6" d="M755,115.3v5.2h-1.1v-1.3c-0.5,0.9-1.5,1.4-2.9,1.4c-1.9,0-3.1-1-3.1-2.4c0-1.3,0.8-2.4,3.2-2.4h2.7v-0.5
		c0-1.4-0.8-2.2-2.4-2.2c-1.1,0-2.1,0.4-2.8,1l-0.5-0.8c0.8-0.7,2.1-1.1,3.4-1.1C753.8,112,755,113.1,755,115.3z M753.9,118v-1.4
		h-2.6c-1.6,0-2.2,0.6-2.2,1.5c0,1,0.8,1.6,2.1,1.6S753.4,119.1,753.9,118z"/>
	<path class="st6" d="M761.2,116.3l-2,1.8v2.4h-1.1v-11.9h1.1v8.1l5-4.6h1.4l-3.6,3.4l3.9,5h-1.4L761.2,116.3z"/>
	<path class="st6" d="M766.5,116.3c0-2.5,1.8-4.3,4.3-4.3c1.4,0,2.6,0.6,3.3,1.7l-0.8,0.6c-0.6-0.8-1.5-1.2-2.4-1.2
		c-1.8,0-3.2,1.3-3.2,3.3s1.3,3.3,3.2,3.3c1,0,1.9-0.4,2.4-1.2l0.8,0.6c-0.7,1.1-1.9,1.7-3.3,1.7
		C768.4,120.6,766.5,118.8,766.5,116.3z"/>
	<path class="st6" d="M775.4,116.3c0-2.5,1.8-4.3,4.3-4.3c1.4,0,2.6,0.6,3.3,1.7l-0.8,0.6c-0.6-0.8-1.5-1.2-2.4-1.2
		c-1.8,0-3.2,1.3-3.2,3.3s1.3,3.3,3.2,3.3c1,0,1.9-0.4,2.4-1.2l0.8,0.6c-0.7,1.1-1.9,1.7-3.3,1.7
		C777.2,120.6,775.4,118.8,775.4,116.3z"/>
	<path class="st6" d="M789.5,112v1.1c-0.1,0-0.2,0-0.3,0c-1.8,0-2.8,1.1-2.8,3.1v4.3h-1.1v-8.4h1.1v1.6
		C786.9,112.6,787.9,112,789.5,112z"/>
</g>
</svg>
