<svg id="Layer_1" data-name="Layer 1" xmlns="http://www.w3.org/2000/svg" viewBox="0 0 1000 1000.28"><defs><style>.cls-1{fill:#dc3233;}.cls-2{fill:#fb4934;}.cls-3{fill:#cc241e;}.cls-4{fill:#9d0e04;}.cls-5{fill:#970d05;}</style></defs><path class="cls-1" d="M0,78v160a40.46,40.46,0,0,0,17.39,33.23L686,735.45c26.84,18.64,63.55-.57,63.55-33.24V548.59A40.46,40.46,0,0,0,732.4,515.5L63.76,44.88C37,26,0,45.18,0,78Z" transform="translate(0)"/><path class="cls-2" d="M96.3,378.45l87,60.35a61.32,61.32,0,0,1,26.35,50.38V938.67A61.33,61.33,0,0,1,148.27,1000H61.33A61.33,61.33,0,0,1,0,938.67V428.83C0,379.32,55.63,350.22,96.3,378.45Z" transform="translate(0)"/><path class="cls-3" d="M755.58,84.7V265.22a31.71,31.71,0,0,1-13.36,25.86L634.3,367.67a31.72,31.72,0,0,1-36.52.13L468.64,277.51a31.71,31.71,0,0,1-.08-51.92L705.62,58.77C726.63,44,755.58,59,755.58,84.7Z" transform="translate(0)"/><path class="cls-4" d="M247.1,524.25v74.17a20.27,20.27,0,0,0,31.8,16.67L332.51,578a20.27,20.27,0,0,0,0-33.33L278.9,507.59A20.27,20.27,0,0,0,247.1,524.25Z" transform="translate(0)"/><path class="cls-5" d="M790.08,53.12V947a53.11,53.11,0,0,0,53,53.11l103.63.19a53.12,53.12,0,0,0,53.21-53.12l.06-894A53.12,53.12,0,0,0,946.88,0H843.19A53.11,53.11,0,0,0,790.08,53.12Z" transform="translate(0)"/></svg>