<?xml version="1.0" encoding="utf-8"?>
<!-- Generator: Adobe Illustrator 25.3.0, SVG Export Plug-In . SVG Version: 6.00 Build 0)  -->
<svg version="1.1"
	 id="Layer_1" xmlns:cc="http://creativecommons.org/ns#" xmlns:dc="http://purl.org/dc/elements/1.1/" xmlns:inkscape="http://www.inkscape.org/namespaces/inkscape" xmlns:rdf="http://www.w3.org/1999/02/22-rdf-syntax-ns#" xmlns:sodipodi="http://sodipodi.sourceforge.net/DTD/sodipodi-0.dtd" xmlns:svg="http://www.w3.org/2000/svg"
	 xmlns="http://www.w3.org/2000/svg" xmlns:xlink="http://www.w3.org/1999/xlink" x="0px" y="0px" viewBox="0 0 550 150"
	 style="enable-background:new 0 0 550 150;" xml:space="preserve">
<style type="text/css">
	.st0{fill:#C92727;}
</style>
<path d="M0.5,11.7v23.9c0,2,1,3.8,2.6,5l100.1,69.5c4,2.8,9.5-0.1,9.5-5v-23c0-2-1-3.8-2.6-5L10,6.7C6,3.9,0.5,6.8,0.5,11.7z"/>
<path d="M14.9,56.6l13,9c2.5,1.7,3.9,4.5,3.9,7.5v67.3c0,5.1-4.1,9.2-9.2,9.2l0,0h-13c-5.1,0-9.2-4.1-9.2-9.2l0,0V64.2
	C0.5,56.8,8.8,52.4,14.9,56.6z"/>
<path d="M113.6,12.7v27c0,1.5-0.7,3-2,3.9L95.4,55c-1.6,1.2-3.8,1.2-5.5,0L70.6,41.5c-2.1-1.5-2.7-4.5-1.2-6.6
	c0.3-0.5,0.7-0.8,1.2-1.2l35.5-25C109.2,6.6,113.6,8.8,113.6,12.7z"/>
<path d="M37.5,78.5v11.1c0,1.7,1.4,3,3,3c0.6,0,1.2-0.2,1.7-0.5l8-5.6c1.4-1,1.7-2.8,0.8-4.2c-0.2-0.3-0.5-0.6-0.8-0.8l-8-5.5
	c-1.4-1-3.3-0.6-4.2,0.8C37.7,77.2,37.5,77.8,37.5,78.5z"/>
<path d="M118.7,7.9v133.8c0,4.4,3.5,7.9,7.9,7.9h15.5c4.4,0,8-3.5,8-7.9l0,0V7.9c0-4.4-3.6-8-7.9-8l0,0h-15.5
	C122.3,0,118.7,3.6,118.7,7.9L118.7,7.9z"/>
<path d="M228,120.9v2.2h-12.7v-17.5h12.3v2.2h-9.8v5.4h8.8v2.1h-8.8v5.7L228,120.9L228,120.9z"/>
<path d="M255.5,121l1-1.9c1.3,1.2,3.6,2,5.8,2c3,0,4.3-1.2,4.3-2.7c0-4.2-10.6-1.5-10.6-8.1c0-2.7,2.1-5,6.7-5c2,0,4.1,0.6,5.7,1.5
	l-0.9,2c-1.5-1-3.3-1.4-4.8-1.4c-3,0-4.2,1.3-4.2,2.8c0,4.2,10.6,1.6,10.6,8c0,2.7-2.1,5-6.7,5C259.5,123.2,256.9,122.3,255.5,121z"
	/>
<path d="M301,107.6h-6v-2.2h14.6v2.2h-6V123h-2.5L301,107.6L301,107.6z"/>
<path class="st0" d="M335,121.4c0-1,0.8-1.7,1.7-1.7c0.9,0,1.6,0.7,1.6,1.7s-0.8,1.7-1.6,1.7C335.8,123.2,335,122.4,335,121.4z"/>
<path d="M378.4,120.9v2.2h-12.6v-1.7l7.1-6.9c1.8-1.8,2.2-2.9,2.2-4c0-1.8-1.3-2.9-3.8-2.9c-1.9,0-3.4,0.6-4.5,1.9l-1.6-1.4
	c1.3-1.6,3.7-2.7,6.5-2.7c3.7,0,6,1.8,6,4.9c0,1.7-0.5,3.3-2.9,5.5l-5.4,5.2C369.4,120.9,378.4,120.9,378.4,120.9z"/>
<path d="M405.4,114.2c0-5.7,3.1-9,7.1-9s7.1,3.3,7.1,9s-3.1,9-7.1,9S405.4,119.9,405.4,114.2z M417.3,114.2c0-4.5-1.9-6.7-4.6-6.7
	c-2.8,0-4.6,2.2-4.6,6.7s1.9,6.7,4.6,6.7S417.3,118.7,417.3,114.2z"/>
<path d="M452.6,105.4V123H450v-15.3h-4v-2.2H452.6z"/>
<path d="M493.8,120.9v2.2h-12.6v-1.7l7.1-6.9c1.8-1.8,2.2-2.9,2.2-4c0-1.8-1.3-2.9-3.8-2.9c-1.9,0-3.4,0.6-4.5,1.9l-1.7-1.4
	c1.3-1.6,3.7-2.7,6.5-2.7c3.7,0,6,1.8,6,4.9c0,1.7-0.5,3.3-2.9,5.5l-5.4,5.2H493.8z"/>
<path d="M261.5,65.3V93H255V66c0-10-5.1-15.2-13.7-15.2c-9.7,0-15.9,6.4-15.9,17.2v25H219v-27c0-10-5.1-15.1-13.8-15.1
	c-9.6,0-15.9,6.4-15.9,17.2v25h-6.5V45.3h6.2v8.7c3.4-5.7,9.5-9.1,17.4-9.1c7.9,0,14.1,3.4,17,10c3.5-6.2,10.2-10,18.9-10
	C253.9,45,261.5,51.6,261.5,65.3z"/>
<path d="M314.9,63.4v29.5h-6.2v-7.4c-2.9,4.9-8.5,7.9-16.4,7.9c-10.8,0-17.4-5.6-17.4-13.9c0-7.3,4.7-13.5,18.4-13.5h15.1v-2.9
	c0-8.2-4.6-12.6-13.5-12.6c-6.2,0-12,2.2-15.8,5.6l-2.9-4.8c4.8-4,11.9-6.5,19.4-6.5C307.9,45,314.9,51.2,314.9,63.4z M308.5,78.6
	v-7.8h-14.9c-9.3,0-12.2,3.7-12.2,8.5c0,5.5,4.4,9,12.1,9C300.6,88.4,305.9,84.9,308.5,78.6z"/>
<path d="M350.1,69.1l-11.3,10.3V93h-6.4V25.7h6.5v45.6l28.4-26h8L355,64.7l22.3,28.2h-7.9L350.1,69.1z"/>
<path d="M380.1,69.2c0-14.3,10.3-24.2,24.6-24.2c8.1,0,14.8,3.2,18.7,9.4l-4.8,3.3c-3.3-4.8-8.3-7-13.9-7c-10.4,0-18,7.4-18,18.6
	c0,11.3,7.6,18.6,18,18.6c5.5,0,10.6-2.2,13.9-6.9l4.8,3.3c-3.8,6.2-10.6,9.4-18.7,9.4C390.5,93.5,380.1,83.4,380.1,69.2z"/>
<path class="st0" d="M433.7,88.5c0-2.8,2.2-4.9,4.8-4.9c2.6,0,4.9,2.1,4.9,4.9c0,2.8-2.2,5-4.9,5C435.8,93.5,433.7,91.3,433.7,88.5z
	"/>
<path d="M450.8,69.2c0-14.3,10.3-24.2,24.6-24.2c8.1,0,14.8,3.2,18.7,9.4l-4.8,3.3c-3.3-4.8-8.3-7-13.9-7c-10.4,0-18,7.4-18,18.6
	c0,11.3,7.6,18.6,18,18.6c5.5,0,10.6-2.2,13.9-6.9l4.8,3.3c-3.8,6.2-10.6,9.4-18.7,9.4C461.2,93.5,450.8,83.4,450.8,69.2z"/>
<path d="M501,69.2C501,55,511.4,45,525.3,45c14,0,24.2,10,24.2,24.2s-10.2,24.3-24.2,24.3C511.4,93.5,501,83.3,501,69.2z M543,69.2
	c0-11.2-7.5-18.6-17.6-18.6c-10.1,0-17.7,7.4-17.7,18.6s7.6,18.5,17.7,18.5C535.5,87.7,543,80.3,543,69.2z"/>
</svg>
