<?xml version="1.0" encoding="UTF-8" standalone="no"?>
<!-- Uploaded to: SVG Repo, www.svgrepo.com, Generator: SVG Repo Mixer Tools -->

<svg
   width="800"
   height="241.74753"
   viewBox="0 -47.5 135 40.794895"
   id="Layer_1"
   version="1.1"
   sodipodi:docname="substack-button.svg"
   xml:space="preserve"
   inkscape:version="1.4.3 (0d15f75042, 2025-12-25)"
   xmlns:inkscape="http://www.inkscape.org/namespaces/inkscape"
   xmlns:sodipodi="http://sodipodi.sourceforge.net/DTD/sodipodi-0.dtd"
   xmlns="http://www.w3.org/2000/svg"
   xmlns:svg="http://www.w3.org/2000/svg"><defs
     id="defs23"><rect
       x="241.74757"
       y="367.96118"
       width="543.68933"
       height="133.98058"
       id="rect25" /><rect
       x="499.02914"
       y="325.24271"
       width="408.73788"
       height="43.68932"
       id="rect24" /><rect
       x="490.29126"
       y="323.30096"
       width="245.63107"
       height="38.834949"
       id="rect23" /><rect
       id="b9-AsiUWV4BYTBJAQTByOa"
       width="42.946999"
       height="48"
       x="3.526"
       opacity="0.38"
       y="0" /></defs><sodipodi:namedview
     id="namedview23"
     pagecolor="#ffffff"
     bordercolor="#000000"
     borderopacity="0.25"
     inkscape:showpageshadow="2"
     inkscape:pageopacity="0.0"
     inkscape:pagecheckerboard="0"
     inkscape:deskcolor="#d1d1d1"
     inkscape:zoom="1.03"
     inkscape:cx="245.63107"
     inkscape:cy="139.80583"
     inkscape:window-width="1908"
     inkscape:window-height="1033"
     inkscape:window-x="5"
     inkscape:window-y="40"
     inkscape:window-maximized="1"
     inkscape:current-layer="Layer_1"><inkscape:page
       x="0"
       y="0"
       width="135"
       height="40.794895"
       id="page25"
       margin="40.794903 5.0788836 47.020634 0"
       bleed="0" /><inkscape:page
       x="105.50971"
       y="74.381067"
       width="0"
       height="1.1468446"
       id="page1" /></sodipodi:namedview><style
     id="style1">.st0{fill:#a6a6a6}.st1{stroke:#ffffff;stroke-width:.2;stroke-miterlimit:10}.st1,.st2{fill:#fff}.st3{fill:url(#SVGID_1_)}.st4{fill:url(#SVGID_2_)}.st5{fill:url(#SVGID_3_)}.st6{fill:url(#SVGID_4_)}.st7,.st8,.st9{opacity:.2;enable-background:new}.st8,.st9{opacity:.12}.st9{opacity:.25;fill:#fff}</style><path
     d="M 129.83617,-6.8567962 H 4.836164 c -2.8,0 -5.00000003,-2.2 -5.00000003,-4.9999998 v -30 c 0,-2.8 2.20000003,-5 5.00000003,-5 H 129.83617 c 2.8,0 5,2.2 5,5 v 30 c 0,2.7999998 -2.2,4.9999998 -5,4.9999998 z"
     id="path1" /><g
     id="g23"
     transform="translate(-0.16383503,-46.856796)"><linearGradient
       id="SVGID_1_"
       gradientUnits="userSpaceOnUse"
       x1="21.799999"
       y1="33.290001"
       x2="5.0170002"
       y2="16.507999"
       gradientTransform="matrix(1,0,0,-1,0,42)"><stop
         offset="0"
         stop-color="#00a0ff"
         id="stop4" /><stop
         offset=".007"
         stop-color="#00a1ff"
         id="stop5" /><stop
         offset=".26"
         stop-color="#00beff"
         id="stop6" /><stop
         offset=".512"
         stop-color="#00d2ff"
         id="stop7" /><stop
         offset=".76"
         stop-color="#00dfff"
         id="stop8" /><stop
         offset="1"
         stop-color="#00e3ff"
         id="stop9" /></linearGradient><linearGradient
       id="SVGID_2_"
       gradientUnits="userSpaceOnUse"
       x1="33.834"
       y1="21.999001"
       x2="9.6370001"
       y2="21.999001"
       gradientTransform="matrix(1,0,0,-1,0,42)"><stop
         offset="0"
         stop-color="#ffe000"
         id="stop10" /><stop
         offset=".409"
         stop-color="#ffbd00"
         id="stop11" /><stop
         offset=".775"
         stop-color="orange"
         id="stop12" /><stop
         offset="1"
         stop-color="#ff9c00"
         id="stop13" /></linearGradient><linearGradient
       id="SVGID_3_"
       gradientUnits="userSpaceOnUse"
       x1="24.827"
       y1="19.704"
       x2="2.069"
       y2="-3.0539999"
       gradientTransform="matrix(1,0,0,-1,0,42)"><stop
         offset="0"
         stop-color="#ff3a44"
         id="stop14" /><stop
         offset="1"
         stop-color="#c31162"
         id="stop15" /></linearGradient><linearGradient
       id="SVGID_4_"
       gradientUnits="userSpaceOnUse"
       x1="7.2969999"
       y1="41.824001"
       x2="17.459999"
       y2="31.660999"
       gradientTransform="matrix(1,0,0,-1,0,42)"><stop
         offset="0"
         stop-color="#32a071"
         id="stop16" /><stop
         offset=".069"
         stop-color="#2da771"
         id="stop17" /><stop
         offset=".476"
         stop-color="#15cf74"
         id="stop18" /><stop
         offset=".801"
         stop-color="#06e775"
         id="stop19" /><stop
         offset="1"
         stop-color="#00f076"
         id="stop20" /></linearGradient><path
       class="st9"
       d="M 12.5,7.6 32,18.7 c 0.6,0.4 1,0.8 1,1.3 0,-0.5 -0.3,-1 -1,-1.4 L 12.5,7.5 C 11.1,6.7 10,7.3 10,8.9 V 9 c 0,-1.5 1.1,-2.2 2.5,-1.4 z"
       id="path23" /></g><text
     xml:space="preserve"
     transform="matrix(0.16875,0,0,0.16875,-43.088592,-90.260917)"
     id="text24"
     style="font-style:normal;font-variant:normal;font-weight:normal;font-stretch:normal;font-size:48px;line-height:0;font-family:'Product Sans';-inkscape-font-specification:'Product Sans';text-align:start;writing-mode:lr-tb;direction:ltr;white-space:pre;shape-inside:url(#rect24);fill:#ffffff;fill-opacity:1"
     x="7.2607422e-06"
     y="0"><tspan
       x="499.0293"
       y="339.23065"
       id="tspan1">Read it On: </tspan></text><text
     xml:space="preserve"
     transform="matrix(0.16875,0,0,0.16875,-0.16383603,-94.356797)"
     id="text25"
     style="font-style:normal;font-variant:normal;font-weight:normal;font-stretch:normal;font-size:112px;line-height:1.1;font-family:'Product Sans';-inkscape-font-specification:'Product Sans';writing-mode:lr-tb;direction:ltr;white-space:pre;shape-inside:url(#rect25);fill:#ffffff;fill-opacity:1"><tspan
       x="241.74805"
       y="462.20068"
       id="tspan2">Substack</tspan></text><path
     d="M 33.475913,-35.481747 H 9.8754833 v -4.045786 H 33.475913 Z"
     id="path1-4"
     style="fill:#ff7731;fill-opacity:1;stroke-width:0.674298" /><path
     d="M 33.475913,-30.087364 H 9.8754833 v -4.045787 H 33.475913 Z"
     id="path2-2"
     style="fill:#ff2a2a;stroke-width:0.674298" /><path
     d="M 33.475913,-12.687108 22.002063,-19.85894 9.8754833,-12.725544 V -28.738769 H 33.475913 Z"
     id="path3"
     style="fill:#ff2a2a;stroke-width:0.674298" /><path
     style="fill:#ff7731;fill-opacity:1;stroke-width:0.163835"
     d="m 9.9120153,-32.099514 v -1.884102 h 11.7141977 11.7142 v 1.884102 1.884102 H 21.626213 9.9120153 Z"
     id="path26" /><path
     style="fill:#ff7731;fill-opacity:1;stroke-width:0.163835"
     d="m 9.9120153,-20.791126 v -7.949772 h 11.7141977 11.7142 v 7.864077 c 0,4.325243 -0.04522,7.864078 -0.100488,7.864078 -0.05527,0 -2.513031,-1.509068 -5.461696,-3.353483 -2.948665,-1.844417 -5.477095,-3.397955 -5.618734,-3.452306 -0.161678,-0.06204 -2.35157,1.131728 -5.883874,3.207461 -3.094492,1.818457 -5.792232,3.410556 -5.994978,3.538001 l -0.3686277,0.231716 z"
     id="path27" /></svg>
